<?xml version="1.0" encoding="UTF-8" standalone="no"?>
<!-- Generator: Adobe Illustrator 19.0.0, SVG Export Plug-In . SVG Version: 6.00 Build 0)  -->

<svg
   version="1.1"
   id="Capa_1"
   x="0px"
   y="0px"
   viewBox="0 0 50.127907 45.298481"
   xml:space="preserve"
   sodipodi:docname="coding.svg"
   inkscape:version="1.1.2 (0a00cf5339, 2022-02-04)"
   width="50.127907"
   height="45.298481"
   xmlns:inkscape="http://www.inkscape.org/namespaces/inkscape"
   xmlns:sodipodi="http://sodipodi.sourceforge.net/DTD/sodipodi-0.dtd"
   xmlns="http://www.w3.org/2000/svg"
   xmlns:svg="http://www.w3.org/2000/svg"><defs
   id="defs43" /><sodipodi:namedview
   id="namedview41"
   pagecolor="#ffffff"
   bordercolor="#666666"
   borderopacity="1.0"
   inkscape:pageshadow="2"
   inkscape:pageopacity="0.0"
   inkscape:pagecheckerboard="0"
   showgrid="false"
   inkscape:zoom="10.035088"
   inkscape:cx="-7.6232515"
   inkscape:cy="21.823426"
   inkscape:window-width="1360"
   inkscape:window-height="768"
   inkscape:window-x="-3"
   inkscape:window-y="-3"
   inkscape:window-maximized="1"
   inkscape:current-layer="Capa_1"
   fit-margin-top="0"
   fit-margin-left="0"
   fit-margin-right="0"
   fit-margin-bottom="0" />



<path
   style="fill:#ececec;stroke:#f2f2f2;stroke-width:2.3;stroke-linecap:round;stroke-linejoin:round;stroke-miterlimit:4;stroke-dasharray:none;stroke-opacity:1;paint-order:stroke fill markers"
   d="m 16.563953,38.148481 c -0.256,0 -0.512,-0.098 -0.707,-0.293 L 1.1499523,23.148481 15.856953,8.4414808 c 0.391,-0.391 1.023,-0.391 1.414,0 0.391,0.391 0.391,1.023 0,1.414 L 3.9779524,23.148481 l 13.2930006,13.293 c 0.391,0.391 0.391,1.023 0,1.414 -0.195,0.195 -0.451,0.293 -0.707,0.293 z"
   id="path4" /><path
   style="fill:#ececec;stroke:#f2f2f2;stroke-width:2.3;stroke-linecap:round;stroke-linejoin:round;stroke-miterlimit:4;stroke-dasharray:none;stroke-opacity:1;paint-order:stroke fill markers"
   d="m 33.563953,38.148481 c -0.256,0 -0.512,-0.098 -0.707,-0.293 -0.391,-0.391 -0.391,-1.023 0,-1.414 l 13.293,-13.293 -13.293,-13.2930002 c -0.391,-0.391 -0.391,-1.023 0,-1.414 0.391,-0.391 1.023,-0.391 1.414,0 l 14.707,14.7070002 -14.707,14.707 c -0.195,0.195 -0.451,0.293 -0.707,0.293 z"
   id="path6" /><path
   style="fill:#ececec;stroke:#f2f2f2;stroke-width:2.3;stroke-linecap:round;stroke-linejoin:round;stroke-miterlimit:4;stroke-dasharray:none;stroke-opacity:1;paint-order:stroke fill markers"
   d="m 20.564953,44.148481 c -0.071,0 -0.144,-0.008 -0.216,-0.023 -0.539,-0.118 -0.88,-0.651 -0.762,-1.191 l 9,-41.0000002 c 0.118,-0.539 0.654,-0.88 1.191,-0.762 0.539,0.118 0.88,0.651 0.762,1.191 l -9,41.0000002 c -0.102,0.467 -0.516,0.785 -0.975,0.785 z"
   id="path8" />
<g
   id="g10"
   transform="translate(-3.4360476,-5.8515192)">
</g>
<g
   id="g12"
   transform="translate(-3.4360476,-5.8515192)">
</g>
<g
   id="g14"
   transform="translate(-3.4360476,-5.8515192)">
</g>
<g
   id="g16"
   transform="translate(-3.4360476,-5.8515192)">
</g>
<g
   id="g18"
   transform="translate(-3.4360476,-5.8515192)">
</g>
<g
   id="g20"
   transform="translate(-3.4360476,-5.8515192)">
</g>
<g
   id="g22"
   transform="translate(-3.4360476,-5.8515192)">
</g>
<g
   id="g24"
   transform="translate(-3.4360476,-5.8515192)">
</g>
<g
   id="g26"
   transform="translate(-3.4360476,-5.8515192)">
</g>
<g
   id="g28"
   transform="translate(-3.4360476,-5.8515192)">
</g>
<g
   id="g30"
   transform="translate(-3.4360476,-5.8515192)">
</g>
<g
   id="g32"
   transform="translate(-3.4360476,-5.8515192)">
</g>
<g
   id="g34"
   transform="translate(-3.4360476,-5.8515192)">
</g>
<g
   id="g36"
   transform="translate(-3.4360476,-5.8515192)">
</g>
<g
   id="g38"
   transform="translate(-3.4360476,-5.8515192)">
</g>
</svg>
