<?xml version="1.0" encoding="UTF-8" standalone="no"?>
<!-- Generator: Adobe Illustrator 18.0.0, SVG Export Plug-In . SVG Version: 6.00 Build 0)  -->

<svg
   version="1.1"
   id="Capa_1"
   x="0px"
   y="0px"
   viewBox="0 0 293.95401 202.565"
   xml:space="preserve"
   sodipodi:docname="gamepad.svg"
   width="293.95401"
   height="202.565"
   inkscape:version="1.1.2 (0a00cf5339, 2022-02-04)"
   xmlns:inkscape="http://www.inkscape.org/namespaces/inkscape"
   xmlns:sodipodi="http://sodipodi.sourceforge.net/DTD/sodipodi-0.dtd"
   xmlns="http://www.w3.org/2000/svg"
   xmlns:svg="http://www.w3.org/2000/svg"><defs
   id="defs49" /><sodipodi:namedview
   id="namedview47"
   pagecolor="#ffffff"
   bordercolor="#666666"
   borderopacity="1.0"
   inkscape:pageshadow="2"
   inkscape:pageopacity="0.0"
   inkscape:pagecheckerboard="0"
   showgrid="false"
   fit-margin-top="0"
   fit-margin-left="0"
   fit-margin-right="0"
   fit-margin-bottom="0"
   inkscape:zoom="0.97294465"
   inkscape:cx="-143.37917"
   inkscape:cy="148.00431"
   inkscape:window-width="1360"
   inkscape:window-height="768"
   inkscape:window-x="-3"
   inkscape:window-y="-3"
   inkscape:window-maximized="1"
   inkscape:current-layer="Capa_1" />
<g
   id="g14"
   style="fill:#f2f2f2"
   transform="translate(0,-45.694)">
	<path
   d="m 219.602,99.555 h -65.125 v -19.43 c 0,-18.985 -15.445,-34.431 -34.43,-34.431 H 85.424 c -4.143,0 -7.5,3.358 -7.5,7.5 0,4.142 3.357,7.5 7.5,7.5 h 34.623 c 10.714,0 19.43,8.717 19.43,19.431 v 19.43 H 74.352 C 33.354,99.555 0,132.909 0,173.906 c 0,40.998 33.354,74.353 74.352,74.353 29.215,0 55.804,-17.355 67.75,-43.692 h 9.751 c 11.945,26.338 38.533,43.692 67.749,43.692 40.998,0 74.352,-33.355 74.352,-74.353 C 293.953,132.909 260.6,99.555 219.602,99.555 Z m 0,133.704 c -24.741,0 -47.122,-15.589 -55.691,-38.791 -1.088,-2.946 -3.896,-4.902 -7.035,-4.902 H 137.08 c -3.14,0 -5.947,1.956 -7.035,4.901 -8.571,23.202 -30.952,38.791 -55.693,38.791 C 41.625,233.259 15,206.633 15,173.906 15,141.179 41.625,114.554 74.352,114.554 h 145.25 c 32.727,0 59.352,26.625 59.352,59.352 -0.001,32.727 -26.626,59.353 -59.352,59.353 z"
   id="path2"
   style="fill:#f2f2f2" />
	<path
   d="M 101.957,166.406 H 81.852 V 146.07 c 0,-4.142 -3.357,-7.5 -7.5,-7.5 -4.143,0 -7.5,3.358 -7.5,7.5 v 20.336 H 46.746 c -4.143,0 -7.5,3.358 -7.5,7.5 0,4.142 3.357,7.5 7.5,7.5 h 20.105 v 20.337 c 0,4.142 3.357,7.5 7.5,7.5 4.143,0 7.5,-3.358 7.5,-7.5 v -20.337 h 20.105 c 4.143,0 7.5,-3.358 7.5,-7.5 10e-4,-4.142 -3.356,-7.5 -7.499,-7.5 z"
   id="path4"
   style="fill:#f2f2f2" />
	<circle
   cx="219.60201"
   cy="148.203"
   r="10.668"
   id="circle6"
   style="fill:#f2f2f2" />
	<circle
   cx="219.60201"
   cy="199.608"
   r="10.668"
   id="circle8"
   style="fill:#f2f2f2" />
	<circle
   cx="245.30499"
   cy="173.907"
   r="10.668"
   id="circle10"
   style="fill:#f2f2f2" />
	<circle
   cx="193.89799"
   cy="173.907"
   r="10.668"
   id="circle12"
   style="fill:#f2f2f2" />
</g>
<g
   id="g16"
   transform="translate(0,-45.694)">
</g>
<g
   id="g18"
   transform="translate(0,-45.694)">
</g>
<g
   id="g20"
   transform="translate(0,-45.694)">
</g>
<g
   id="g22"
   transform="translate(0,-45.694)">
</g>
<g
   id="g24"
   transform="translate(0,-45.694)">
</g>
<g
   id="g26"
   transform="translate(0,-45.694)">
</g>
<g
   id="g28"
   transform="translate(0,-45.694)">
</g>
<g
   id="g30"
   transform="translate(0,-45.694)">
</g>
<g
   id="g32"
   transform="translate(0,-45.694)">
</g>
<g
   id="g34"
   transform="translate(0,-45.694)">
</g>
<g
   id="g36"
   transform="translate(0,-45.694)">
</g>
<g
   id="g38"
   transform="translate(0,-45.694)">
</g>
<g
   id="g40"
   transform="translate(0,-45.694)">
</g>
<g
   id="g42"
   transform="translate(0,-45.694)">
</g>
<g
   id="g44"
   transform="translate(0,-45.694)">
</g>
</svg>
