<?xml version="1.0" encoding="UTF-8" standalone="no"?>
<!-- Created with Inkscape (http://www.inkscape.org/) -->

<svg
   version="1.1"
   id="svg2"
   xml:space="preserve"
   width="481.28998"
   height="267.04651"
   viewBox="0 0 481.28998 267.04651"
   sodipodi:docname="contact us.svg"
   inkscape:version="1.1.2 (0a00cf5339, 2022-02-04, custom)"
   xmlns:inkscape="http://www.inkscape.org/namespaces/inkscape"
   xmlns:sodipodi="http://sodipodi.sourceforge.net/DTD/sodipodi-0.dtd"
   xmlns="http://www.w3.org/2000/svg"
   xmlns:svg="http://www.w3.org/2000/svg"><defs
     id="defs6"><clipPath
       clipPathUnits="userSpaceOnUse"
       id="clipPath18"><path
         d="M 7500,0 H 0 V 5000 H 7500 V 0 M 709.902,637.5 V 544.031 H 6790.09 V 637.5 h 172.41 v 3860 h -6420 v -3860 h 167.402"
         id="path16" /></clipPath><linearGradient
       x1="0"
       y1="0"
       x2="1"
       y2="0"
       gradientUnits="userSpaceOnUse"
       gradientTransform="matrix(2e-7,-5022.15,-5022.15,-2e-7,3750,5046.41)"
       spreadMethod="pad"
       id="linearGradient24"><stop
         style="stop-opacity:1;stop-color:#fffdfe"
         offset="0"
         id="stop20" /><stop
         style="stop-opacity:1;stop-color:#eef2fa"
         offset="1"
         id="stop22" /></linearGradient><clipPath
       clipPathUnits="userSpaceOnUse"
       id="clipPath34"><path
         d="m 709.902,544.031 h 6080.19 v 93.4688 H 709.902 Z"
         id="path32" /></clipPath><clipPath
       clipPathUnits="userSpaceOnUse"
       id="clipPath46"><path
         d="m 6962.5,637.5 h -172.41 v 165.25 h 0.01 v 648.53 2885.97 H 709.902 V 4078.54 637.5 H 542.5 v 3860 h 6420 v -3860"
         id="path44" /></clipPath><clipPath
       clipPathUnits="userSpaceOnUse"
       id="clipPath58"><path
         d="M 6790.09,637.5 H 709.902 V 4078.54 802.75 H 6790.1 l -0.01,-165.25"
         id="path56" /></clipPath><clipPath
       clipPathUnits="userSpaceOnUse"
       id="clipPath64"><path
         d="m 705.699,632.699 h 362.402 v 3449.52 H 705.699 Z"
         id="path62" /></clipPath><clipPath
       clipPathUnits="userSpaceOnUse"
       id="clipPath76"><path
         d="M 6790.09,637.5 H 709.902 V 4078.54 802.75 H 6790.1 l -0.01,-165.25"
         id="path74" /></clipPath><clipPath
       clipPathUnits="userSpaceOnUse"
       id="clipPath82"><path
         d="m 1063.3,632.699 h 5731.2 v 348.07 H 1063.3 Z"
         id="path80" /></clipPath><clipPath
       clipPathUnits="userSpaceOnUse"
       id="clipPath96"><path
         d="M 6790.1,1451.28 H 3595.88 L 709.902,4337.25 H 6790.1 V 1451.28"
         id="path94" /></clipPath><clipPath
       clipPathUnits="userSpaceOnUse"
       id="clipPath184"><path
         d="m 4827.3,2346.42 c -0.6,-15.02 2.95,-51.59 -4.35,-67.16 -17.68,-8.88 -49.31,-2.15 -71.44,9.48 -13.15,6.91 -25.36,6.86 -39.39,6.82 -9.6,-0.04 -20.05,-0.07 -32.23,2.12 -29.43,5.3 -51.68,19.21 -54.68,32.79 -3.26,14.82 49.91,12.84 87.01,15.13 41.52,2.55 66.08,16.79 66.08,16.79 l 49,-15.97"
         id="path182" /></clipPath><clipPath
       clipPathUnits="userSpaceOnUse"
       id="clipPath206"><path
         d="m 4965.22,2358.54 c 10.08,-11.15 38.19,-34.82 43.86,-51.05 -6.42,-18.71 -33.74,-36.02 -57.69,-43.19 -23.96,-7.16 -32.24,-26.57 -57.45,-43.69 -24.74,-16.79 -50.38,-22.41 -62.01,-14.8 -12.7,8.31 26.69,44.08 51.61,71.66 27.89,30.86 35.5,58.21 35.5,58.21 l 46.18,22.86"
         id="path204" /></clipPath><clipPath
       clipPathUnits="userSpaceOnUse"
       id="clipPath226"><path
         d="m 5257.44,2885.96 c 7.04,-18.1 22.8,-39.65 32.71,-56.5 9.91,-16.85 40.48,-61.75 22.8,-109.04 -18.97,-50.72 -61.09,-63.33 -104.71,-63.33 -43.61,0 -71.73,0 -101.47,0 -29.74,0 -212.57,44.94 -212.57,44.94 0,0 21.1,-12.12 31.44,-44.94 10.33,-32.82 31.12,-252.56 31.12,-252.56 -13.47,-13.57 -32.35,-19.17 -56.29,-17.28 0,0 -55.34,170.23 -77.51,233.49 -22.91,65.36 -50.31,130.05 -45.18,158.49 7.2,39.88 76.31,41.07 133.38,39.09 57.06,-1.99 188.42,-6.92 215.13,-3.16 l -13.85,47.75 145,23.05"
         id="path224" /></clipPath><clipPath
       clipPathUnits="userSpaceOnUse"
       id="clipPath322"><path
         d="m 3048.86,1538.02 c -2.81,-14.06 -14.26,-47.15 -10.98,-63.21 14.39,-12.18 45.2,-13.01 68.31,-7.18 23.11,5.83 39.37,-6.02 68.36,-7.72 28.45,-1.66 52.18,6.25 57.99,18.16 6.33,13 -43.37,23.06 -77.24,33.46 -37.89,11.65 -57.48,30.33 -57.48,30.33 l -48.96,-3.84"
         id="path320" /></clipPath><clipPath
       clipPathUnits="userSpaceOnUse"
       id="clipPath342"><path
         d="m 2606.28,1656.52 c -14.29,-1.01 -49.24,1.29 -63.86,-6.12 -7.94,-17.11 -0.59,-47.04 11.14,-67.79 11.73,-20.74 4.6,-39.55 10.63,-67.97 5.92,-27.88 19.83,-48.67 32.85,-51.12 14.21,-2.67 10.77,47.92 11.85,83.34 1.21,39.63 14.04,63.45 14.04,63.45 l -16.65,46.21"
         id="path340" /></clipPath><clipPath
       clipPathUnits="userSpaceOnUse"
       id="clipPath366"><path
         d="m 2673.25,1637.15 c 0,0 256.57,138.97 273.79,152.34 17.22,13.36 120.38,366.84 128.33,389.66 0,0 76.01,61.92 86.51,110.99 l -175.72,115.01 c -13.43,-28.87 -13.31,-48.13 -49.1,-120.36 -34.17,-68.96 -46.53,-263.25 -79.39,-427.89 0,0 -19,-4.49 -52.8,-20.6 -31.03,-14.79 -162.4,-153.76 -162.4,-153.76 0,0 3.68,-30.73 30.78,-45.39"
         id="path364" /></clipPath></defs><sodipodi:namedview
     id="namedview4"
     pagecolor="#ffffff"
     bordercolor="#666666"
     borderopacity="1.0"
     inkscape:pageshadow="2"
     inkscape:pageopacity="0.0"
     inkscape:pagecheckerboard="0"
     showgrid="false"
     fit-margin-top="0"
     fit-margin-left="0"
     fit-margin-right="0"
     fit-margin-bottom="0"
     inkscape:zoom="1.2133952"
     inkscape:cx="387.75495"
     inkscape:cy="173.89223"
     inkscape:window-width="1360"
     inkscape:window-height="768"
     inkscape:window-x="-3"
     inkscape:window-y="-3"
     inkscape:window-maximized="1"
     inkscape:current-layer="g8" /><g
     id="g8"
     inkscape:groupmode="layer"
     inkscape:label="ink_ext_XXXXXX"
     transform="matrix(1.3333333,0,0,-1.3333333,-335.38219,457.6905)"><path
       d="M 609.317,144.558 H 430.196 V 265.709 H 609.317 V 144.558"
       style="fill:#fab641;fill-opacity:1;fill-rule:nonzero;stroke:none;stroke-width:0.1"
       id="path158" /><path
       d="M 430.196,265.709 514.269,189 c 3.109,-2.836 7.867,-2.836 10.975,0 l 84.073,76.709 H 430.196"
       style="fill:#db8b2f;fill-opacity:1;fill-rule:nonzero;stroke:none;stroke-width:0.1"
       id="path160" /><path
       d="m 609.317,144.558 -89.56,93.474 89.56,-85.514 z"
       style="fill:#db8b2f;fill-opacity:1;fill-rule:nonzero;stroke:none;stroke-width:0.1"
       id="path162" /><path
       d="m 430.196,144.558 89.561,93.474 -89.561,-85.514 z"
       style="fill:#db8b2f;fill-opacity:1;fill-rule:nonzero;stroke:none;stroke-width:0.1"
       id="path164" /><path
       d="m 430.196,265.709 82.784,-69.94 c 3.913,-3.306 9.64,-3.306 13.553,0 l 82.784,69.94 H 430.196"
       style="fill:#fbbe42;fill-opacity:1;fill-rule:nonzero;stroke:none;stroke-width:0.1"
       id="path166" /><path
       d="m 489.91,323.612 c 0,1.539 1.249,2.788 2.789,2.788 1.54,0 2.788,-1.249 2.788,-2.788 0,-1.54 -1.248,-2.789 -2.788,-2.789 -1.54,0 -2.789,1.249 -2.789,2.789"
       style="fill:#3f57b0;fill-opacity:1;fill-rule:nonzero;stroke:none;stroke-width:0.1"
       id="path172" /><path
       d="m 462.521,233.047 c -0.378,-0.427 -0.418,-1.463 1.348,-2.753 1.767,-1.291 5.402,-1.801 6.88,-1.864 1.478,-0.063 2.436,0.14 4.419,-0.801 1.984,-0.941 5.454,-1.576 6.702,-0.95 0.46,0.329 0.425,1.247 0.425,1.247 l -19.774,5.121"
       style="fill:#a5e0db;fill-opacity:1;fill-rule:nonzero;stroke:none;stroke-width:0.1"
       id="path174" /><path
       d="m 482.73,234.642 c -0.06,-1.502 0.295,-5.158 -0.435,-6.716 -1.768,-0.888 -4.931,-0.215 -7.144,0.948 -2.214,1.163 -4.163,0.354 -7.162,0.894 -2.943,0.53 -5.169,1.921 -5.468,3.279 -0.326,1.482 4.991,1.284 8.701,1.513 4.152,0.255 6.608,1.679 6.608,1.679 l 4.9,-1.597"
       style="fill:#24457b;fill-opacity:1;fill-rule:nonzero;stroke:none;stroke-width:0.1"
       id="path176" /><g
       id="g178"
       transform="scale(0.1)"><g
         id="g180"
         clip-path="url(#clipPath184)"><path
           d="m 4761.7,2333.88 c -0.01,0.07 -0.58,5.46 -2.15,12 -1.62,6.56 -4.07,14.25 -8.57,19.27 -1.02,1.12 -2.77,1.21 -3.89,0.18 -1.13,-1.02 -1.21,-2.76 -0.18,-3.89 3.27,-3.52 5.83,-10.69 7.28,-16.85 0.74,-3.08 1.26,-5.93 1.58,-7.99 0.32,-2.06 0.45,-3.3 0.45,-3.3 0.16,-1.52 1.52,-2.61 3.03,-2.45 1.52,0.16 2.61,1.51 2.45,3.03"
           style="fill:#a5e0db;fill-opacity:1;fill-rule:nonzero;stroke:none"
           id="path186" /><path
           d="m 4732.89,2329.79 c -0.01,0.07 -0.58,5.46 -2.15,12 -1.62,6.56 -4.07,14.25 -8.57,19.27 -1.02,1.12 -2.76,1.21 -3.89,0.18 -1.12,-1.02 -1.21,-2.76 -0.18,-3.89 3.28,-3.52 5.83,-10.69 7.28,-16.85 0.75,-3.08 1.26,-5.93 1.58,-7.99 0.32,-2.06 0.45,-3.3 0.46,-3.3 0.16,-1.52 1.51,-2.61 3.02,-2.45 1.52,0.16 2.61,1.51 2.45,3.03"
           style="fill:#a5e0db;fill-opacity:1;fill-rule:nonzero;stroke:none"
           id="path188" /><path
           d="m 4704.09,2325.7 c -0.01,0.07 -0.58,5.46 -2.16,12 -1.62,6.56 -4.07,14.25 -8.57,19.27 -1.02,1.12 -2.76,1.21 -3.89,0.18 -1.12,-1.02 -1.2,-2.76 -0.18,-3.89 3.28,-3.52 5.84,-10.69 7.29,-16.85 0.74,-3.08 1.25,-5.93 1.57,-7.99 0.33,-2.06 0.46,-3.3 0.46,-3.3 0.16,-1.52 1.51,-2.61 3.03,-2.45 1.51,0.16 2.61,1.51 2.45,3.03"
           style="fill:#a5e0db;fill-opacity:1;fill-rule:nonzero;stroke:none"
           id="path190" /></g></g><path
       d="m 484.292,239.883 -1.562,-5.241 c 0,0 -0.715,-0.06 -1.07,-0.318 -0.355,-0.259 -0.993,-1.246 -1.463,-1.152 -1.864,0.369 -2.367,3.067 -2.367,3.067 l 1.322,5.48 5.14,-1.836"
       style="fill:#f57f81;fill-opacity:1;fill-rule:nonzero;stroke:none;stroke-width:0.1"
       id="path192" /><path
       d="m 511.244,286.291 -0.708,-5.523 -19.275,0.394 c 0,0 -4.539,0.088 -5.884,-4.524 -1.345,-4.612 -6.381,-35.564 -6.381,-35.564 0,0 2.708,-1.997 5.459,-1.563 0,0 9.087,18.796 10.388,23.959 1.302,5.163 0.647,9.517 0.647,9.517 l 23.233,2.018 -7.479,11.286"
       style="fill:#24457b;fill-opacity:1;fill-rule:nonzero;stroke:none;stroke-width:0.1"
       id="path194" /><path
       d="m 483.193,220.581 c 0.028,-0.569 0.723,-1.338 2.889,-1.025 2.165,0.313 5.12,2.49 6.221,3.478 1.1,0.989 1.643,1.804 3.719,2.518 2.076,0.715 5,2.688 5.455,4.008 0.099,0.557 -0.569,1.189 -0.569,1.189 l -17.715,-10.168"
       style="fill:#a5e0db;fill-opacity:1;fill-rule:nonzero;stroke:none;stroke-width:0.1"
       id="path196" /><path
       d="m 496.522,235.854 c 1.008,-1.116 3.819,-3.482 4.386,-5.105 -0.642,-1.871 -3.374,-3.602 -5.769,-4.319 -2.396,-0.716 -3.224,-2.657 -5.745,-4.369 -2.474,-1.679 -5.038,-2.241 -6.201,-1.48 -1.27,0.831 2.669,4.408 5.161,7.166 2.789,3.086 3.549,5.821 3.549,5.821 l 4.619,2.286"
       style="fill:#24457b;fill-opacity:1;fill-rule:nonzero;stroke:none;stroke-width:0.1"
       id="path198" /><g
       id="g200"
       transform="scale(0.1)"><g
         id="g202"
         clip-path="url(#clipPath206)"><path
           d="m 4927.11,2303.69 c -0.06,0.05 -4.23,3.5 -9.94,7.08 -5.74,3.55 -12.87,7.34 -19.6,7.78 -1.51,0.09 -2.82,-1.07 -2.9,-2.59 -0.09,-1.52 1.07,-2.82 2.58,-2.91 4.81,-0.22 11.65,-3.56 17,-6.95 2.69,-1.68 5.04,-3.36 6.71,-4.61 1.68,-1.24 2.64,-2.04 2.64,-2.04 1.17,-0.97 2.91,-0.8 3.88,0.37 0.97,1.17 0.8,2.91 -0.37,3.87"
           style="fill:#a5e0db;fill-opacity:1;fill-rule:nonzero;stroke:none"
           id="path208" /><path
           d="m 4909.38,2280.63 c -0.06,0.04 -4.24,3.49 -9.94,7.07 -5.74,3.56 -12.87,7.34 -19.6,7.78 -1.52,0.09 -2.82,-1.07 -2.91,-2.59 -0.09,-1.52 1.07,-2.82 2.59,-2.91 4.81,-0.22 11.65,-3.56 16.99,-6.95 2.69,-1.68 5.05,-3.36 6.72,-4.61 1.67,-1.24 2.63,-2.04 2.64,-2.04 1.17,-0.97 2.9,-0.8 3.87,0.37 0.97,1.17 0.81,2.91 -0.36,3.88"
           style="fill:#a5e0db;fill-opacity:1;fill-rule:nonzero;stroke:none"
           id="path210" /><path
           d="m 4891.64,2257.56 c -0.06,0.04 -4.23,3.49 -9.93,7.07 -5.74,3.56 -12.87,7.34 -19.6,7.78 -1.52,0.09 -2.82,-1.07 -2.91,-2.59 -0.09,-1.51 1.07,-2.82 2.59,-2.91 4.81,-0.22 11.65,-3.56 16.99,-6.95 2.69,-1.68 5.05,-3.36 6.72,-4.6 1.67,-1.25 2.63,-2.05 2.63,-2.05 1.18,-0.97 2.91,-0.8 3.88,0.37 0.97,1.17 0.81,2.91 -0.37,3.88"
           style="fill:#a5e0db;fill-opacity:1;fill-rule:nonzero;stroke:none"
           id="path212" /></g></g><path
       d="m 495.676,240.453 0.846,-4.599 c 0,0 -0.469,-0.543 -0.542,-0.976 -0.072,-0.433 0.161,-1.585 -0.239,-1.847 -1.591,-1.039 -3.838,0.537 -3.838,0.537 l -1.856,5.688 5.629,1.197"
       style="fill:#f57f81;fill-opacity:1;fill-rule:nonzero;stroke:none;stroke-width:0.1"
       id="path214" /><path
       d="m 525.744,288.596 c 0.705,-1.81 2.28,-3.965 3.271,-5.65 0.991,-1.685 4.048,-6.175 2.28,-10.904 -1.896,-5.072 -6.109,-6.333 -10.47,-6.333 -4.362,0 -7.174,0 -10.148,0 -2.974,0 -21.257,4.495 -21.257,4.495 0,0 2.11,-1.213 3.144,-4.495 1.033,-3.282 3.112,-25.256 3.112,-25.256 -1.348,-1.357 -3.235,-1.917 -5.629,-1.728 0,0 -5.477,17.043 -7.751,23.349 -2.377,6.587 -5.031,13.005 -4.518,15.849 0.72,3.988 7.631,4.107 13.337,3.909 5.707,-0.199 18.843,-0.692 21.514,-0.316 l -1.385,4.775 14.5,2.305"
       style="fill:#81b3e4;fill-opacity:1;fill-rule:nonzero;stroke:none;stroke-width:0.1"
       id="path216" /><path
       d="m 531.295,272.042 c 1.767,4.729 -1.289,9.219 -2.28,10.904 -0.991,1.685 -2.567,3.84 -3.271,5.65 l -14.5,-2.305 0.885,-3.053 c 0,0 8.041,-1.103 11.547,3.053 0,0 2.563,-3.897 3.306,-6.235 1.024,-3.225 0.744,-8.456 -5.57,-9.713 -6.314,-1.257 -29.618,2.171 -32.703,2.514 -3.085,0.343 -2.057,-1.439 -0.343,-5.062 1.714,-3.622 2.432,-10.121 3.974,-17.903 0.984,-4.967 2.095,-10.383 2.095,-10.383 0.455,0.259 0.873,0.568 1.241,0.944 0,0 -2.079,21.974 -3.112,25.256 -1.034,3.282 -3.144,4.494 -3.144,4.494 0,0 18.283,-4.494 21.257,-4.494 2.974,0 5.786,0 10.148,0 4.361,0 8.574,1.261 10.47,6.333"
       style="fill:#507caf;fill-opacity:1;fill-rule:nonzero;stroke:none;stroke-width:0.1"
       id="path218" /><g
       id="g220"
       transform="scale(0.1)"><g
         id="g222"
         clip-path="url(#clipPath226)"><path
           d="m 5200.31,2885.34 c 3.42,-20.84 9.39,-36.66 14.4,-51.56 5.01,-14.93 9.08,-28.88 9.08,-46.49 0,-1.7 -0.04,-3.43 -0.12,-5.2 -0.78,-16.16 -6.47,-28.25 -19.68,-36.87 -13.25,-8.61 -34.57,-13.52 -66.27,-13.5 -11.17,0 -23.62,0.6 -37.44,1.83 -42.77,3.83 -96.22,10.33 -142.58,15.87 -46.42,5.54 -85.54,10.14 -100.39,10.15 -2.51,-0.02 -4.27,-0.09 -5.79,-0.49 -2.97,-0.81 -5.57,-2.61 -7.11,-5.31 -1.55,-2.7 -2.14,-6.01 -2.15,-10.05 0.04,-12.34 5.6,-32.63 15.64,-66.72 8.24,-27.92 26.58,-104.51 42.82,-174 8.12,-34.75 15.73,-67.75 21.3,-92.06 5.57,-24.31 9.11,-39.89 9.12,-39.93 l 5.37,1.22 c -0.02,0.04 -56.67,249.89 -73.33,306.33 -10.05,33.95 -15.46,54.4 -15.41,65.16 -0.01,3.5 0.56,5.85 1.41,7.28 0.85,1.42 1.88,2.19 3.83,2.77 0.39,0.13 2.03,0.31 4.3,0.29 14.02,0.01 53.42,-4.56 99.73,-10.11 46.36,-5.54 99.84,-12.05 142.75,-15.88 13.96,-1.25 26.56,-1.86 37.93,-1.86 32.23,0.01 54.52,4.87 69.26,14.39 14.79,9.5 21.49,23.92 22.2,41.24 0.08,1.86 0.12,3.67 0.12,5.45 0,18.48 -4.32,33.21 -9.37,48.24 -5.06,15.05 -10.86,30.43 -14.19,50.71 l -5.43,-0.9"
           style="fill:#2c4e7e;fill-opacity:1;fill-rule:nonzero;stroke:none"
           id="path228" /><path
           d="m 5224.58,2774.8 -0.44,-0.08 c -0.98,-0.18 -3.49,-0.56 -6.9,-0.56 -7.08,0 -17.85,1.63 -27.21,9.87 -3.44,2.97 -6.83,9.51 -9.49,17.56 -4.05,12.07 -6.79,27.48 -8.47,39.8 -0.84,6.16 -1.43,11.56 -1.81,15.41 -0.37,3.85 -0.54,6.13 -0.54,6.14 l -5.49,-0.39 c 0,-0.06 1.19,-16.69 4.46,-35.23 1.64,-9.28 3.79,-19.03 6.63,-27.48 2.86,-8.46 6.26,-15.65 11.07,-19.94 10.72,-9.43 22.98,-11.25 30.85,-11.25 5.09,0 8.42,0.75 8.56,0.78 l -1.22,5.37"
           style="fill:#2c4e7e;fill-opacity:1;fill-rule:nonzero;stroke:none"
           id="path230" /><path
           d="m 4886.94,2405.02 c 0.14,-0.03 5.94,-1.32 14.87,-1.32 15.23,0 39.8,3.76 60.46,24.18 l -3.87,3.91 c -19.27,-19.05 -42.19,-22.57 -56.59,-22.58 -4.2,0 -7.66,0.3 -10.04,0.6 -1.2,0.15 -2.12,0.3 -2.74,0.41 l -0.9,0.17 -1.19,-5.37"
           style="fill:#2c4e7e;fill-opacity:1;fill-rule:nonzero;stroke:none"
           id="path232" /></g></g><path
       d="m 519.575,341.252 c 0,0 -2.906,2.46 -8.331,1.945 -4.319,-0.409 -7.477,-2.92 -8.47,-6.079 -0.993,-3.16 -0.694,-8.941 4.542,-12.173 0,0 -1.625,-0.885 0.18,-2.6 0,0 -2.798,-0.684 -3.701,-2.237 -0.903,-1.554 0,-3.01 0.542,-4.765 0.541,-1.754 0.722,-2.026 -1.625,-4.372 -2.347,-2.347 -4.365,-6.499 -1.054,-11.825 3.311,-5.326 9.067,-9.79 17.065,-9.366 8.091,0.429 17.226,3.125 19.519,15.588 2.293,12.464 -5.56,15.3 -7.727,14.74 0,0 2.39,5.32 1.668,12.181 -0.722,6.86 -4.07,9.941 -6.888,10.163 -4.146,0.327 -5.72,-1.2 -5.72,-1.2"
       style="fill:#17223d;fill-opacity:1;fill-rule:nonzero;stroke:none;stroke-width:0.1"
       id="path234" /><path
       d="m 517.885,316.673 c -1.071,-0.323 -2.858,-0.592 -3.804,-1.33 -0.947,-0.738 -10.296,-15.298 -10.296,-15.298 0,0 -8.613,13.48 -9.893,15.085 -1.342,1.683 -7.905,3.787 -9.099,3.548 -1.477,-0.295 -0.678,-2.137 -0.378,-3.335 0.172,-0.686 0.441,-2.583 1.658,-3.422 1.217,-0.839 5.54,-1.492 5.54,-1.492 0,0 7.75,-16.31 9.352,-18.755 1.036,-1.581 2.177,-1.6 4.099,0.514 1.861,2.046 9.287,11.785 9.287,11.785 l 3.534,12.7"
       style="fill:#f57f81;fill-opacity:1;fill-rule:nonzero;stroke:none;stroke-width:0.1"
       id="path236" /><path
       d="m 517.885,316.673 c -1.708,-0.619 -3.283,-0.579 -4.146,-1.68 -0.863,-1.1 -1.61,-6.129 -1.61,-6.129 0,0 4.283,0.851 5.423,3.097 1.139,2.247 1.171,4.277 1.171,4.277 l -0.838,0.435"
       style="fill:#3db79a;fill-opacity:1;fill-rule:nonzero;stroke:none;stroke-width:0.1"
       id="path238" /><path
       d="m 523.848,319.475 c 0,0 0.738,-0.519 1.447,-0.519 0.955,-0.139 4.069,-0.817 4.698,-1.983 1.512,-2.086 -0.038,-8.931 -0.919,-13.735 -0.537,-2.929 -5.728,-9.504 -2.183,-16.212 0,0 -7.989,-4.715 -16.052,-0.735 -0.842,3.992 0.148,6.774 0.175,11.267 -1.14,1.238 -2.271,3.512 -2.373,4.985 -0.383,5.481 5.098,7.152 9.367,13.253 1.192,1.704 2.093,1.621 3.716,2.863 1.064,0.816 2.124,0.816 2.124,0.816"
       style="fill:#62cab6;fill-opacity:1;fill-rule:nonzero;stroke:none;stroke-width:0.1"
       id="path240" /><path
       d="m 526.321,317.096 c 2.413,1.522 4.371,-0.355 5.513,-3.098 1.143,-2.743 7.178,-19.788 7.707,-21.906 0.53,-2.117 -1.8,-23.078 -2.435,-24.297 -0.635,-1.218 -1.299,-2.086 -3.72,-2.086 -2.421,0 -11.123,0 -11.123,0 0,0 0.55,1.136 2.456,1.611 1.906,0.475 7.305,0.633 8.364,2.327 1.059,1.694 0.608,21.246 0.608,21.246 0,0 -6.7,14.312 -8.182,17.869 -1.482,3.556 -0.9,7.255 0.812,8.334"
       style="fill:#f57f81;fill-opacity:1;fill-rule:nonzero;stroke:none;stroke-width:0.1"
       id="path242" /><path
       d="m 527.448,318.023 c -1.429,0 -4.703,-3.25 -1.939,-9.261 0,0 3.584,5.083 6.867,3.848 0,0 -1.435,6.229 -4.928,5.413"
       style="fill:#3db79a;fill-opacity:1;fill-rule:nonzero;stroke:none;stroke-width:0.1"
       id="path244" /><path
       d="m 520.951,324.974 2.521,-2.243 1.114,-3.775 c 0,0 -1.583,-1.059 -2.193,-1.978 -0.742,-1.119 -2.406,-3.81 -4.407,-4.039 0,0 0.201,2.427 -0.101,3.734 -0.303,1.306 -1.216,3.898 -1.216,3.898 l 4.282,4.403"
       style="fill:#f57f81;fill-opacity:1;fill-rule:nonzero;stroke:none;stroke-width:0.1"
       id="path246" /><path
       d="m 520.951,324.974 c 0,0 0.542,-2.113 0.451,-3.185 -0.091,-1.072 -1.039,-3.301 -3.517,-5.116 -0.303,1.306 -1.216,3.898 -1.216,3.898 l 4.282,4.403"
       style="fill:#b44761;fill-opacity:1;fill-rule:nonzero;stroke:none;stroke-width:0.1"
       id="path248" /><path
       d="m 510.339,329.725 c -0.473,-1.697 -2.416,-4.075 -1.993,-4.499 0.352,-0.352 2.008,-0.273 2.008,-0.273 0,0 1.217,1.173 0.805,2.82 -0.412,1.646 -0.82,1.952 -0.82,1.952"
       style="fill:#b44761;fill-opacity:1;fill-rule:nonzero;stroke:none;stroke-width:0.1"
       id="path250" /><path
       d="m 514.563,340.33 c -2.347,-0.214 -4.701,-3.467 -4.657,-6.426 0.045,-2.96 0.729,-4.57 0.541,-6.66 -0.188,-2.091 -0.176,-4.105 0.703,-6.297 0.584,-1.458 2.105,-1.786 4.131,-1.297 1.856,0.448 4.391,2.234 4.975,2.796 0.584,0.562 0.695,2.528 0.695,2.528 0,0 2.769,0.407 4.038,2.941 1.269,2.533 1.039,13.459 -10.426,12.415"
       style="fill:#f57f81;fill-opacity:1;fill-rule:nonzero;stroke:none;stroke-width:0.1"
       id="path252" /><path
       d="m 520.951,324.974 c 0,0 2.527,0.99 2.302,3.798 -0.231,2.883 -4.114,2.986 -3.956,0.448 0,0 -2.715,0.537 -4.37,2.479 -3.107,3.647 -3.456,6.618 -3.456,6.618 0.658,4.542 8.104,2.935 8.104,2.935 0,0 3.771,1.631 6.981,-0.51 2.298,-1.532 3.469,-7.031 1.607,-11.609 -1.858,-4.572 -4.691,-6.402 -4.691,-6.402 l -2.521,2.243"
       style="fill:#17223d;fill-opacity:1;fill-rule:nonzero;stroke:none;stroke-width:0.1"
       id="path254" /><path
       d="m 512.38,328.987 c 0.021,0.375 0.342,0.662 0.717,0.641 0.375,-0.021 0.662,-0.343 0.641,-0.718 -0.021,-0.375 -0.342,-0.661 -0.717,-0.64 -0.375,0.021 -0.662,0.342 -0.641,0.717"
       style="fill:#17223d;fill-opacity:1;fill-rule:nonzero;stroke:none;stroke-width:0.1"
       id="path256" /><path
       d="m 511.82,330.769 3.107,-0.985 c 0,0 -0.067,1.061 -1.138,1.388 -1.302,0.398 -1.969,-0.403 -1.969,-0.403"
       style="fill:#17223d;fill-opacity:1;fill-rule:nonzero;stroke:none;stroke-width:0.1"
       id="path258" /><path
       d="m 521.654,329.375 c -0.421,0.152 -1.054,0.13 -1.409,-0.158 -0.132,-0.106 0.094,-0.324 0.221,-0.277 0.715,0.266 1.59,0.303 1.943,-0.534 l 0.044,0.032 c -0.091,0.462 -0.349,0.776 -0.799,0.937"
       style="fill:#b44761;fill-opacity:1;fill-rule:nonzero;stroke:none;stroke-width:0.1"
       id="path260" /><path
       d="m 521.321,329.309 -0.244,-0.215 c 0.116,-0.055 0.302,-0.188 0.39,-0.344 0.152,-0.267 0.195,-0.499 0.17,-0.809 -0.058,-0.713 -0.458,-1.225 -1.154,-1.387 l -0.013,-0.044 c 0.606,-0.151 1.291,0.475 1.431,1.017 0.154,0.601 0.113,1.453 -0.58,1.782"
       style="fill:#b44761;fill-opacity:1;fill-rule:nonzero;stroke:none;stroke-width:0.1"
       id="path262" /><path
       d="m 518.008,315.796 c 0.04,-0.811 -1.492,-2.599 -1.115,-3.835 0.377,-1.235 2.941,-1.403 4.325,0 1.384,1.404 2.192,5.8 4.077,6.995 0,0 -0.641,0 -0.933,0.76 l -6.354,-3.92"
       style="fill:#f57f81;fill-opacity:1;fill-rule:nonzero;stroke:none;stroke-width:0.1"
       id="path264" /><path
       d="m 490.399,320.036 c 0,0 -0.755,-6.661 1.818,-11.992 0.254,-0.527 0.035,-1.161 -0.476,-1.445 l -3.136,-1.742 c -0.671,-0.373 -1.509,0.014 -1.651,0.768 -0.491,2.614 -1.167,8.34 0.615,14.738 l 2.83,-0.327"
       style="fill:#24457b;fill-opacity:1;fill-rule:nonzero;stroke:none;stroke-width:0.1"
       id="path266" /><path
       d="m 487.116,318.312 c 0.794,-0.225 1.943,-0.717 1.975,-1.472 0.033,-0.754 -1.214,-0.787 -1.214,-0.787 0,0 0.886,-0.394 0.952,-0.951 0.066,-0.558 -0.492,-1.116 -1.313,-1.116 0,0 0.848,-0.289 0.588,-1.047 -0.26,-0.758 -1.507,-0.134 -1.753,-0.692 0,0 -0.738,0.722 -0.803,2.33 -0.066,1.607 1.568,3.735 1.568,3.735"
       style="fill:#f57f81;fill-opacity:1;fill-rule:nonzero;stroke:none;stroke-width:0.1"
       id="path268" /><path
       d="m 493.892,315.13 c -0.756,1.453 -1.5,2.51 -3.214,3.182 -1.461,0.573 -2.153,1.7 -2.534,1.126 -0.38,-0.573 0.653,-2.383 2.252,-2.928 l 3.496,-1.38"
       style="fill:#f57f81;fill-opacity:1;fill-rule:nonzero;stroke:none;stroke-width:0.1"
       id="path270" /><path
       d="m 485.538,320.262 6.479,-0.817 c 1.663,-0.2 2.693,8.347 1.03,8.548 l -6.36,1.07 -1.149,-8.801"
       style="fill:#24457b;fill-opacity:1;fill-rule:nonzero;stroke:none;stroke-width:0.1"
       id="path272" /><path
       d="m 486.687,329.063 c -2.364,0.267 -10.494,4.07 -12.261,10.909 -6.667,0.846 -9.792,-23.783 -3.125,-24.629 1.835,4.253 10.97,5.331 14.237,4.919 1.266,-0.165 2.415,8.636 1.149,8.801"
       style="fill:#3f57b0;fill-opacity:1;fill-rule:nonzero;stroke:none;stroke-width:0.1"
       id="path274" /><path
       d="m 313.804,267.371 c 5.345,-4.871 11.156,-8.177 17.892,-6.895 9.486,1.806 16.894,11.475 16.894,11.475 0,0 2.444,-3.187 2.444,-3.506 0,-0.319 -6.269,-12.75 -17.638,-15.3 -11.369,-2.55 -21.593,5.596 -21.593,5.596 l 2.001,8.63"
       style="fill:#dc6372;fill-opacity:1;fill-rule:nonzero;stroke:none;stroke-width:0.1"
       id="path278" /><path
       d="m 411.217,200.228 c 4.493,-6.34 12.926,-8.477 19.896,-5.041 l 12.657,6.239 c 2.403,1.184 5.312,0.37 6.75,-1.89 l 22.878,-35.947 c 1.614,-2.537 0.78,-5.905 -1.837,-7.386 -7.397,-4.186 -22.68,-11.268 -39.506,-9.897 -23.617,1.924 -38.992,23.883 -65.002,64.751 -26.009,40.867 -39.392,64.094 -31.134,86.304 5.883,15.824 18.771,26.67 25.695,31.599 2.45,1.743 5.854,1.073 7.469,-1.464 L 391.96,291.55 c 1.438,-2.26 0.945,-5.241 -1.146,-6.916 l -11.011,-8.824 c -6.064,-4.86 -7.699,-13.404 -3.859,-20.159 l 35.273,-55.423"
       style="fill:#3f57b0;fill-opacity:1;fill-rule:nonzero;stroke:none;stroke-width:0.1"
       id="path280" /><path
       d="m 381.545,277.206 9.269,7.428 c 2.091,1.675 2.584,4.656 1.146,6.916 l -12.094,19.003 -10.926,17.123 c -1.661,2.375 -4.94,2.982 -7.326,1.284 -2.348,-1.672 -5.387,-4.04 -8.602,-7.037 l 28.533,-44.717"
       style="fill:#2d46a3;fill-opacity:1;fill-rule:nonzero;stroke:none;stroke-width:0.1"
       id="path282" /><path
       d="m 461.549,151.392 c 4.074,1.643 7.504,3.392 10.012,4.811 2.539,1.437 3.38,4.645 1.954,7.152 l -23.508,36.841 c -1.544,1.741 -4.089,2.289 -6.237,1.23 l -10.761,-5.305 28.54,-44.729"
       style="fill:#2d46a3;fill-opacity:1;fill-rule:nonzero;stroke:none;stroke-width:0.1"
       id="path284" /><path
       d="m 314.148,267.099 4.33,-3.243 c 0,0 1.953,-5.988 -1.345,-9.102 l -5.733,3.474 2.748,8.871"
       style="fill:#db8b2f;fill-opacity:1;fill-rule:nonzero;stroke:none;stroke-width:0.1"
       id="path286" /><path
       d="m 326.481,144.558 c 0,0 2.761,3.718 1.098,9.065 -2.149,6.912 -8.563,10.106 -6.25,14.631 1.924,3.763 7.675,1.859 10.724,-3.214 2.929,-4.873 3.154,-15.144 -1.472,-20.482 h -4.1"
       style="fill:#58c59d;fill-opacity:1;fill-rule:nonzero;stroke:none;stroke-width:0.1"
       id="path292" /><path
       d="m 325.465,165.925 0.048,-0.054 c 0.515,-0.577 4.833,-5.719 4.825,-12.889 -0.001,-2.506 -0.521,-5.267 -1.913,-8.199 -0.124,-0.262 -0.013,-0.575 0.249,-0.7 0.262,-0.124 0.575,-0.012 0.699,0.249 1.46,3.073 2.015,5.998 2.015,8.65 -0.011,8.109 -5.118,13.609 -5.152,13.655 -0.197,0.213 -0.529,0.226 -0.742,0.029 -0.213,-0.196 -0.226,-0.529 -0.029,-0.741"
       style="fill:#3f57b0;fill-opacity:1;fill-rule:nonzero;stroke:none;stroke-width:0.1"
       id="path294" /><path
       d="m 333.023,144.558 c 0,0 6.67,4.072 10.323,12.489 3.652,8.417 3.811,18.263 0,21.757 -3.561,3.264 -7.782,1.271 -8.894,-4.446 -1.111,-5.718 1.43,-20.216 -6.034,-29.8 h 4.605"
       style="fill:#3daf83;fill-opacity:1;fill-rule:nonzero;stroke:none;stroke-width:0.1"
       id="path296" /><path
       d="m 339.49,177.149 c 0,0 0.014,-0.109 0.036,-0.326 0.067,-0.651 0.202,-2.24 0.202,-4.42 0,-3.323 -0.315,-8.019 -1.653,-12.856 -1.255,-4.539 -3.061,-8.211 -4.552,-10.744 -0.745,-1.266 -1.411,-2.248 -1.889,-2.91 -0.238,-0.331 -0.43,-0.583 -0.562,-0.75 l -0.149,-0.188 -0.048,-0.059 c -0.187,-0.222 -0.159,-0.553 0.063,-0.74 0.222,-0.187 0.553,-0.158 0.74,0.064 0.029,0.036 4.836,5.749 7.409,15.048 1.373,4.964 1.69,9.746 1.691,13.135 0,2.965 -0.244,4.863 -0.247,4.88 -0.037,0.288 -0.3,0.491 -0.587,0.454 -0.288,-0.037 -0.491,-0.301 -0.454,-0.588"
       style="fill:#3f57b0;fill-opacity:1;fill-rule:nonzero;stroke:none;stroke-width:0.1"
       id="path298" /><path
       d="M 611.13616,142.983 H 252.90464 c -0.75566,0 -1.36799,0.705 -1.36799,1.575 0,0.869 0.61233,1.575 1.36799,1.575 h 358.23152 c 0.75565,0 1.36799,-0.706 1.36799,-1.575 0,-0.87 -0.61234,-1.575 -1.36799,-1.575"
       style="fill:#6380c9;fill-opacity:1;fill-rule:nonzero;stroke:none;stroke-width:0.0931969"
       id="path308" /><path
       d="m 323.254,147.807 c 0.255,-0.48 0.061,-1.449 -1.864,-2.25 -1.926,-0.8 -5.408,-0.461 -6.791,-0.189 -1.384,0.271 -2.226,0.674 -4.274,0.245 -2.049,-0.429 -5.405,-0.241 -6.422,0.618 -0.353,0.407 -0.115,1.25 -0.115,1.25 l 19.466,0.326"
       style="fill:#84cebe;fill-opacity:1;fill-rule:nonzero;stroke:none;stroke-width:0.1"
       id="path312" /><path
       d="m 304.886,153.802 c -0.281,-1.405 -1.426,-4.715 -1.098,-6.321 1.439,-1.218 4.52,-1.301 6.831,-0.718 2.311,0.583 3.937,-0.602 6.836,-0.772 2.845,-0.166 5.219,0.625 5.799,1.816 0.633,1.3 -4.337,2.306 -7.724,3.346 -3.79,1.165 -5.748,3.033 -5.748,3.033 l -4.896,-0.384"
       style="fill:#38917f;fill-opacity:1;fill-rule:nonzero;stroke:none;stroke-width:0.1"
       id="path314" /><g
       id="g316"
       transform="scale(0.1)"><g
         id="g318"
         clip-path="url(#clipPath322)"><path
           d="m 3111.78,1509.97 c 0,0 0.4,1.12 1.16,2.96 2.19,5.5 7.93,17.23 13.76,21.04 1.2,0.81 1.52,2.44 0.7,3.64 -0.81,1.2 -2.44,1.52 -3.64,0.7 -5.29,-3.65 -9.28,-10.22 -12.25,-15.94 -2.92,-5.71 -4.65,-10.57 -4.68,-10.64 -0.48,-1.37 0.23,-2.87 1.6,-3.35 1.36,-0.49 2.86,0.22 3.35,1.59"
           style="fill:#84cebe;fill-opacity:1;fill-rule:nonzero;stroke:none"
           id="path324" /><path
           d="m 3137.56,1499.74 c 0,0 0.4,1.12 1.16,2.96 2.19,5.5 7.93,17.23 13.76,21.04 1.2,0.81 1.52,2.44 0.7,3.64 -0.81,1.2 -2.44,1.52 -3.64,0.7 -5.29,-3.64 -9.28,-10.22 -12.25,-15.93 -2.92,-5.72 -4.65,-10.58 -4.68,-10.65 -0.48,-1.36 0.23,-2.86 1.59,-3.35 1.37,-0.49 2.87,0.22 3.36,1.59"
           style="fill:#84cebe;fill-opacity:1;fill-rule:nonzero;stroke:none"
           id="path326" /><path
           d="m 3163.34,1489.51 c 0,0.01 0.4,1.13 1.16,2.96 2.19,5.5 7.93,17.24 13.76,21.04 1.2,0.82 1.51,2.45 0.7,3.65 -0.81,1.2 -2.44,1.51 -3.64,0.7 -5.29,-3.65 -9.29,-10.23 -12.25,-15.94 -2.92,-5.72 -4.65,-10.58 -4.68,-10.64 -0.48,-1.37 0.23,-2.87 1.59,-3.36 1.37,-0.49 2.87,0.23 3.36,1.59"
           style="fill:#84cebe;fill-opacity:1;fill-rule:nonzero;stroke:none"
           id="path328" /></g></g><path
       d="m 304.886,159.407 v -5.605 c 0,0 0.648,-0.216 0.92,-0.535 0.271,-0.318 0.641,-1.375 1.098,-1.394 1.81,-0.075 2.878,2.313 2.878,2.313 l 0.681,5.096 -5.577,0.125"
       style="fill:#f57f81;fill-opacity:1;fill-rule:nonzero;stroke:none;stroke-width:0.1"
       id="path330" /><path
       d="m 259.704,146.352 c -0.395,-0.373 -1.381,-0.442 -2.662,1.203 -1.282,1.645 -1.875,5.093 -1.979,6.499 -0.104,1.406 0.061,2.325 -0.894,4.187 -0.955,1.863 -1.662,5.149 -1.102,6.357 0.299,0.448 1.175,0.442 1.175,0.442 l 5.462,-18.688"
       style="fill:#a5e0db;fill-opacity:1;fill-rule:nonzero;stroke:none;stroke-width:0.1"
       id="path332" /><path
       d="m 260.628,165.652 c -1.429,-0.101 -4.924,0.128 -6.386,-0.612 -0.794,-1.711 -0.059,-4.704 1.114,-6.779 1.173,-2.074 0.46,-3.955 1.063,-6.797 0.592,-2.788 1.983,-4.867 3.285,-5.112 1.421,-0.267 1.077,4.792 1.185,8.334 0.121,3.963 1.404,6.345 1.404,6.345 l -1.665,4.621"
       style="fill:#3db79a;fill-opacity:1;fill-rule:nonzero;stroke:none;stroke-width:0.1"
       id="path334" /><g
       id="g336"
       transform="scale(0.1)"><g
         id="g338"
         clip-path="url(#clipPath342)"><path
           d="m 2595.87,1588.42 c 0,0 1.19,-0.09 3.16,-0.34 5.88,-0.66 18.72,-3.09 23.93,-7.71 1.1,-0.94 2.76,-0.81 3.7,0.29 0.94,1.1 0.81,2.76 -0.29,3.7 -4.92,4.14 -12.32,6.25 -18.61,7.59 -6.28,1.31 -11.43,1.7 -11.5,1.7 -1.44,0.11 -2.7,-0.97 -2.81,-2.42 -0.11,-1.44 0.97,-2.7 2.42,-2.81"
           style="fill:#a5e0db;fill-opacity:1;fill-rule:nonzero;stroke:none"
           id="path344" /><path
           d="m 2592.82,1560.85 c 0.01,0 1.19,-0.09 3.16,-0.33 5.89,-0.66 18.72,-3.1 23.93,-7.72 1.11,-0.94 2.76,-0.81 3.7,0.29 0.95,1.11 0.82,2.76 -0.29,3.71 -4.91,4.13 -12.31,6.24 -18.6,7.59 -6.29,1.31 -11.43,1.69 -11.51,1.7 -1.44,0.11 -2.7,-0.98 -2.81,-2.42 -0.11,-1.45 0.98,-2.71 2.42,-2.82"
           style="fill:#a5e0db;fill-opacity:1;fill-rule:nonzero;stroke:none"
           id="path346" /><path
           d="m 2589.78,1533.29 c 0,0 1.18,-0.09 3.16,-0.34 5.88,-0.66 18.71,-3.1 23.93,-7.71 1.1,-0.94 2.75,-0.81 3.7,0.29 0.94,1.1 0.81,2.76 -0.29,3.7 -4.92,4.14 -12.32,6.25 -18.61,7.59 -6.28,1.31 -11.43,1.7 -11.5,1.7 -1.45,0.11 -2.71,-0.97 -2.82,-2.42 -0.1,-1.45 0.98,-2.71 2.43,-2.81"
           style="fill:#a5e0db;fill-opacity:1;fill-rule:nonzero;stroke:none"
           id="path348" /></g></g><path
       d="m 264.247,168.254 -3.619,-2.602 c 0,0 -0.036,-0.683 -0.272,-1.029 -0.236,-0.345 -1.157,-0.982 -1.054,-1.427 0.406,-1.766 2.991,-2.165 2.991,-2.165 l 5.032,2.684 -3.078,4.539"
       style="fill:#f57f81;fill-opacity:1;fill-rule:nonzero;stroke:none;stroke-width:0.1"
       id="path350" /><path
       d="m 315.713,239.262 c -6.278,0 -10.951,-0.473 -10.951,-0.473 -2.008,-0.878 -5.453,-5.442 -6.467,-8.338 -1.016,-2.903 0.49,-6.946 1.02,-9.438 2.947,-13.883 5.963,-23.53 7.108,-29.034 0.7,-3.366 -1.795,-3.904 -1.819,-9.238 -0.033,-7.635 0.282,-23.912 0.282,-23.912 0,0 2.352,-1.368 5.459,-0.432 0,0 4.712,26.845 5.228,29.917 0.837,4.982 1.127,7.072 1.221,15.692 0.132,12.123 -1.081,35.256 -1.081,35.256"
       style="fill:#24457b;fill-opacity:1;fill-rule:nonzero;stroke:none;stroke-width:0.1"
       id="path352" /><path
       d="m 315.635,228.745 c -1.05,-4.914 -8.094,-10.825 -8.094,-10.825 -0.798,-2.289 -11.119,-37.632 -12.842,-38.976 -1.722,-1.333 -27.373,-15.225 -27.373,-15.225 -1.239,0.662 -1.985,1.669 -2.436,2.562 -0.347,0.703 -0.515,1.334 -0.588,1.68 -0.021,0.116 -0.042,0.199 -0.042,0.242 l -0.01,0.052 c 0,0 13.135,13.892 16.232,15.372 3.381,1.617 5.282,2.058 5.282,2.058 v 0.011 c 3.53,16.419 3.423,29.252 6.279,38.325 0.525,1.68 1.082,3.181 1.659,4.462 0.735,1.606 1.291,2.951 1.743,4.095 0.189,0.494 0.357,0.945 0.514,1.376 0.158,0.43 0.294,0.829 0.41,1.197 0.084,0.251 0.157,0.493 0.231,0.714 0.325,1.028 0.556,1.858 0.808,2.645 0.116,0.347 0.231,0.683 0.358,1.029 0.073,0.169 0.136,0.347 0.209,0.515 0.074,0.179 0.147,0.357 0.231,0.535 h 0.011 v -0.01 l 4.903,-3.654 2.363,-1.753 10.152,-6.427"
       style="fill:#81b3e4;fill-opacity:1;fill-rule:nonzero;stroke:none;stroke-width:0.1"
       id="path354" /><path
       d="m 305.483,235.172 c -0.693,-0.893 -1.712,-2.09 -2.993,-3.213 -3.643,-3.171 -5.844,-8.104 -7.786,-18.327 -2.189,-11.517 -5.864,-28.64 -6.305,-29.7 -0.43,-1.061 -3.675,-0.662 -9.597,-4.988 -4.473,-3.265 -10.972,-10.059 -13.912,-12.663 -0.347,0.703 -0.515,1.334 -0.588,1.68 -0.021,0.116 -0.031,0.199 -0.042,0.242 l -0.01,0.052 c 0,0 13.135,13.892 16.232,15.372 3.381,1.617 5.282,2.058 5.282,2.058 v 0.011 c 3.369,16.419 3.423,29.252 6.279,38.325 0.525,1.68 1.082,3.17 1.669,4.452 0.736,1.606 1.292,2.95 1.733,4.105 0.199,0.494 0.367,0.956 0.514,1.376 0.158,0.43 0.294,0.829 0.41,1.197 0.084,0.251 0.157,0.493 0.231,0.714 0.325,1.028 0.556,1.858 0.808,2.645 0.116,0.347 0.231,0.683 0.358,1.029 0.073,0.169 0.136,0.347 0.209,0.515 0.074,0.179 0.158,0.347 0.242,0.525 v 0.01 l 4.903,-3.664 2.363,-1.753"
       style="fill:#507caf;fill-opacity:1;fill-rule:nonzero;stroke:none;stroke-width:0.1"
       id="path356" /><path
       d="m 315.635,228.745 c 0,0 -3.21,-4.206 -12.037,-4.536 -6.099,-0.228 -9.977,2.218 -9.977,2.218 l 2.381,3.734 19.633,-1.416"
       style="fill:#507caf;fill-opacity:1;fill-rule:nonzero;stroke:none;stroke-width:0.1"
       id="path358" /><g
       id="g360"
       transform="scale(0.1)"><g
         id="g362"
         clip-path="url(#clipPath366)"><path
           d="m 3117.27,2385.71 c -36.59,-47.07 -83.64,-75.57 -103.9,-108.97 -10.09,-16.79 -17.71,-42.68 -26.1,-80.48 -8.37,-37.8 -17.45,-87.5 -30.16,-151.73 -12.61,-63.79 -24.66,-117.4 -34.42,-155.99 -4.88,-19.29 -9.19,-34.83 -12.7,-45.97 -1.75,-5.58 -3.31,-10.05 -4.62,-13.31 -1.26,-3.24 -2.46,-5.38 -2.84,-5.73 -0.98,-1.19 -4.9,-3.26 -10.92,-5.68 -18.19,-7.46 -55.6,-20.4 -106.55,-54.58 -67.91,-45.56 -146.35,-118.34 -146.4,-118.39 l 3.57,-3.84 c 0.01,0.01 4.88,4.52 13.28,12.04 25.18,22.55 81.94,71.94 132.47,105.83 33.67,22.58 61.24,35.74 81.29,44.23 10.03,4.25 18.18,7.33 24.33,9.85 6.18,2.59 10.29,4.36 12.81,7.01 1.36,1.56 2.41,3.82 3.84,7.3 9.59,24.01 29.89,104.39 52.02,216.21 12.7,64.26 21.79,113.98 30.13,151.61 8.32,37.63 15.97,63.19 25.47,78.91 18.92,31.64 66.22,60.65 103.54,108.46 l -4.14,3.22"
           style="fill:#2c4e7e;fill-opacity:1;fill-rule:nonzero;stroke:none"
           id="path368" /><path
           d="m 3075.82,2272.25 c 0,-0.01 -0.17,-0.99 -0.62,-2.81 -1.54,-6.39 -6.27,-22.58 -16.73,-36.95 -10.51,-14.38 -26.39,-26.88 -50.99,-26.91 -4.71,0 -9.76,0.47 -15.17,1.48 l -0.97,-5.16 c 5.7,-1.07 11.08,-1.57 16.14,-1.57 30.35,-0.03 49,18.04 59.62,35.68 10.7,17.67 13.85,35.12 13.89,35.3 l -5.17,0.94"
           style="fill:#2c4e7e;fill-opacity:1;fill-rule:nonzero;stroke:none"
           id="path370" /><path
           d="m 2653.78,1707.71 c 0.4,-22.78 15.95,-54.72 44.62,-72.1 l 2.71,4.5 c -26.95,16.15 -41.86,47.09 -42.08,67.68 l -5.25,-0.08"
           style="fill:#2c4e7e;fill-opacity:1;fill-rule:nonzero;stroke:none"
           id="path372" /></g></g><path
       d="m 306.711,275.352 6.08,-5.209 3.484,8.27 -7.24,4.178 -2.324,-7.239"
       style="fill:#f57f81;fill-opacity:1;fill-rule:nonzero;stroke:none;stroke-width:0.1"
       id="path374" /><path
       d="m 315.244,275.964 c 0,0 -7.168,2.01 -6.209,6.627 l 7.24,-4.178 -1.031,-2.449"
       style="fill:#b44761;fill-opacity:1;fill-rule:nonzero;stroke:none;stroke-width:0.1"
       id="path376" /><path
       d="m 312.647,270.349 c 1.397,-1.178 2.296,-2.837 2.499,-4.653 0.33,-2.938 0.591,-7.336 0.839,-13.721 0.225,-5.798 0.809,-22.62 0.809,-22.62 0,0 -4.439,-2.91 -11.895,-2.313 -7.122,0.57 -10.195,4.072 -10.195,4.072 0,0 0.742,23.656 3.083,32.967 3.458,9.601 8.924,11.271 8.924,11.271 l 5.936,-5.003"
       style="fill:#fab641;fill-opacity:1;fill-rule:nonzero;stroke:none;stroke-width:0.1"
       id="path378" /><path
       d="m 319.905,289.361 c 0.375,-0.648 2.336,-3.398 2.972,-4.196 0.636,-0.799 -1.903,-1.011 -1.903,-1.011 l -1.069,5.207"
       style="fill:#b44761;fill-opacity:1;fill-rule:nonzero;stroke:none;stroke-width:0.1"
       id="path380" /><path
       d="m 309.035,282.591 c 0,0 0.41,-0.946 0.837,-1.652 0.426,-0.707 6.39,-3.127 7.964,-3.318 1.573,-0.192 3.663,0.128 3.247,5.38 -0.417,5.252 -1.751,9.8 -5.261,12.178 -3.51,2.378 -8.43,-0.218 -10.555,-3.585 -2.125,-3.367 0.141,-9.972 3.768,-9.003"
       style="fill:#f57f81;fill-opacity:1;fill-rule:nonzero;stroke:none;stroke-width:0.1"
       id="path382" /><path
       d="m 309.035,282.591 v 0 l -0.776,-2.418 c 0,0 -0.602,-0.288 -2.123,1.602 -1.664,2.067 -4.7,5.597 -4.402,7.839 0.391,2.942 3.762,4.003 3.762,4.003 0,0 1.719,5.437 8.442,8.325 6.722,2.888 9.693,-1.973 4.525,-5.56 0,0 3.595,-1.795 1.325,-3.157 -2.269,-1.362 -8.758,-1.192 -8.758,-1.192 0,0 3.185,-1.217 2.237,-2.118 -0.947,-0.901 -5.058,-0.53 -5.058,-0.53 l 0.514,-2.071 c 0,0 -1.676,0.513 -2.58,-0.571 -1.084,-1.3 0.58,-4.833 2.892,-4.152"
       style="fill:#17223d;fill-opacity:1;fill-rule:nonzero;stroke:none;stroke-width:0.1"
       id="path384" /><path
       d="m 304.477,300.109 c -0.013,-0.03 -0.567,-1.226 -0.569,-2.834 -0.007,-1.507 0.516,-3.406 2.445,-4.895 l 0.241,0.312 0.012,0.393 -0.03,0.002 c -0.175,0.01 -1.069,0.093 -1.976,0.555 -0.908,0.468 -1.823,1.273 -2.172,2.815 -0.048,0.212 -0.258,0.345 -0.47,0.298 -0.213,-0.048 -0.346,-0.258 -0.299,-0.47 0.425,-1.917 1.684,-2.945 2.795,-3.447 1.114,-0.508 2.096,-0.538 2.127,-0.54 l 1.213,-0.039 -0.959,0.744 c -1.716,1.337 -2.133,2.929 -2.14,4.272 0,0.712 0.126,1.346 0.252,1.797 0.063,0.226 0.126,0.407 0.172,0.529 l 0.055,0.138 0.018,0.04 c 0.091,0.198 0.005,0.431 -0.193,0.523 -0.197,0.091 -0.431,0.005 -0.522,-0.193"
       style="fill:#17223d;fill-opacity:1;fill-rule:nonzero;stroke:none;stroke-width:0.1"
       id="path386" /><path
       d="m 317.265,288.318 c -0.116,0.339 -0.484,0.52 -0.823,0.403 -0.339,-0.116 -0.519,-0.484 -0.403,-0.823 0.116,-0.339 0.485,-0.519 0.823,-0.403 0.339,0.116 0.519,0.485 0.403,0.823"
       style="fill:#17223d;fill-opacity:1;fill-rule:nonzero;stroke:none;stroke-width:0.1"
       id="path388" /><path
       d="m 317.32,290.098 -2.597,-1.705 c 0,0 -0.212,0.991 0.686,1.567 1.093,0.701 1.911,0.138 1.911,0.138"
       style="fill:#17223d;fill-opacity:1;fill-rule:nonzero;stroke:none;stroke-width:0.1"
       id="path390" /><path
       d="m 306.962,286.096 c 0.348,0.248 0.934,0.391 1.334,0.219 0.148,-0.064 -0.003,-0.322 -0.132,-0.311 -0.724,0.059 -1.537,-0.133 -1.645,-0.991 l -0.049,0.018 c -0.035,0.447 0.12,0.801 0.492,1.065"
       style="fill:#b44761;fill-opacity:1;fill-rule:nonzero;stroke:none;stroke-width:0.1"
       id="path392" /><path
       d="m 307.285,286.122 0.279,-0.135 c -0.093,-0.08 -0.229,-0.25 -0.27,-0.416 -0.07,-0.285 -0.05,-0.508 0.053,-0.786 0.238,-0.64 0.737,-1.006 1.417,-0.975 l 0.023,-0.037 c -0.517,-0.295 -1.307,0.103 -1.575,0.564 -0.296,0.511 -0.478,1.304 0.073,1.785"
       style="fill:#b44761;fill-opacity:1;fill-rule:nonzero;stroke:none;stroke-width:0.1"
       id="path394" /><path
       d="m 304.074,270.089 c -1.471,-0.778 -3.403,-5.024 -2.03,-9.612 1.372,-4.587 3.151,-9.321 3.151,-9.321 0,0 7.087,1.675 8.953,6.19 0,0 -2.503,6.117 -3.668,8.592 -1.165,2.476 -2.689,6.117 -6.406,4.151"
       style="fill:#db8b2f;fill-opacity:1;fill-rule:nonzero;stroke:none;stroke-width:0.1"
       id="path396" /><path
       d="m 311.491,243.455 c 1.589,-1.59 3.755,-3.337 4.963,-3.817 -0.095,2.674 -0.196,4.934 -0.286,7.411 l -5.304,7.045 -3.487,0.943 -1.251,-3.614 c 0,0 2.826,-5.428 5.365,-7.968"
       style="fill:#db8b2f;fill-opacity:1;fill-rule:nonzero;stroke:none;stroke-width:0.1"
       id="path398" /><path
       d="m 305.749,270.143 c -3.351,-0.89 -4.493,-5.697 -1.121,-13.143 3.233,-7.139 8.444,-13.674 11.647,-15.905 3.203,-2.231 15.611,-1.497 25.988,1.571 0,0 5.913,2.123 7.558,3.58 3.664,3.247 3.843,7.559 1.153,6.918 -2.69,-0.64 -6.938,-3.556 -6.938,-3.556 0,0 -1.127,2.219 -1.945,3.947 0,0 -0.727,-0.19 -0.983,-1.727 -0.256,-1.538 -0.233,-3.68 -0.681,-3.992 -1.191,-0.831 -17.825,-2.231 -19.812,-0.273 -2.249,2.217 -5.509,8.1 -7.824,13.532 -2.559,6.004 -3.615,9.958 -7.042,9.048"
       style="fill:#f57f81;fill-opacity:1;fill-rule:nonzero;stroke:none;stroke-width:0.1"
       id="path400" /><path
       d="m 304.628,270.892 c -1.472,-0.779 -3.404,-5.025 -2.031,-9.612 1.373,-4.588 3.152,-9.321 3.152,-9.321 0,0 6.653,1.007 9.477,4.828 0,0 -3.028,7.478 -4.193,9.954 -1.165,2.476 -2.689,6.117 -6.405,4.151"
       style="fill:#fab641;fill-opacity:1;fill-rule:nonzero;stroke:none;stroke-width:0.1"
       id="path402" /></g></svg>
