<?xml version="1.0" encoding="UTF-8" standalone="no"?>
<svg
   width="365.45892pt"
   height="628.57611pt"
   viewBox="0 0 365.45893 628.5761"
   version="1.2"
   id="svg241"
   sodipodi:docname="formacao.svg"
   inkscape:version="1.1.2 (0a00cf5339, 2022-02-04)"
   xmlns:inkscape="http://www.inkscape.org/namespaces/inkscape"
   xmlns:sodipodi="http://sodipodi.sourceforge.net/DTD/sodipodi-0.dtd"
   xmlns="http://www.w3.org/2000/svg"
   xmlns:svg="http://www.w3.org/2000/svg">
  <defs
     id="defs245" />
  <sodipodi:namedview
     id="namedview243"
     pagecolor="#ffffff"
     bordercolor="#666666"
     borderopacity="1.0"
     inkscape:pageshadow="2"
     inkscape:pageopacity="0.0"
     inkscape:pagecheckerboard="0"
     inkscape:document-units="pt"
     showgrid="false"
     inkscape:zoom="0.213375"
     inkscape:cx="-609.256"
     inkscape:cy="503.80785"
     inkscape:window-width="1350"
     inkscape:window-height="730"
     inkscape:window-x="2"
     inkscape:window-y="30"
     inkscape:window-maximized="1"
     inkscape:current-layer="svg241"
     fit-margin-top="0"
     fit-margin-left="0"
     fit-margin-right="0"
     fit-margin-bottom="0" />
  <g
     id="g296"
     transform="translate(-844.4685,-346.99462)">
    <g
       id="g1431"
       transform="translate(-1324.2655)">
      <path
         style="fill:#f5a38f;fill-opacity:1;fill-rule:nonzero;stroke:none;stroke-width:0.992843"
         d="m 2247.6405,533.87397 c 0,-1.57032 1.9022,-11.6875 1.9022,-11.6875 0,0 -4.4359,-14.35157 -4.8903,-14.38282 -9.1373,-0.66797 -16.0259,5.63282 -14.4895,14.10157 l 0.089,0.28125 c 4.7323,15.32031 17.4584,26.6875 33.0338,29.51953 3.5463,0.64843 7.3044,1.32812 11.1588,2.00781 -1.8175,-6.14844 -2.9303,-12.42969 -2.8687,-18.89063 -13.3497,-0.0977 -23.9348,-0.36718 -23.9348,-0.94921"
         id="path176-5" />
      <path
         style="fill:#335187;fill-opacity:1;fill-rule:nonzero;stroke:none;stroke-width:0.992843"
         d="m 2402.1239,470.55365 c -0.2542,-0.76953 -80.3183,52.0625 -80.3183,52.0625 0,0 -34.1735,0.33985 -59.4176,0.11719 -0.061,7.74219 1.1705,15.26172 3.1729,22.63281 24.9476,4.78907 53.3684,9.84766 59.8334,9.33985 12.0444,-0.94141 72.4709,-31.51953 72.4709,-31.51953 0,0 4.4473,-52.0625 4.2587,-52.63282"
         id="path178-9" />
      <path
         style="fill:#456eb5;fill-opacity:1;fill-rule:nonzero;stroke:none;stroke-width:0.992843"
         d="m 2403.0211,667.82318 c -0.1656,-1.32812 -17.081,-60.17968 -18.8484,-112.88671 -1.3669,-40.88282 11.1126,-77.51172 17.4968,-84.21094 2.3681,-2.5 24.3508,-7.85156 24.3508,-7.85156 l -8.0053,13.48046 c -8.1323,15.57032 -10.3425,29.3711 -13.8696,46.94922 -10.2424,50.97266 35.7638,152.96094 33.4265,153.6211 -2.6107,0.74218 -33.9001,-3.87891 -34.5508,-9.10157"
         id="path180-2" />
      <path
         style="fill:#99bff8;fill-opacity:1;fill-rule:nonzero;stroke:none;stroke-width:0.992843"
         d="m 2227.5522,462.10443 -14.0467,9.30079 42.0093,71.73828 13.2112,-58.25 -41.1738,-22.78907"
         id="path182-2" />
      <path
         style="fill:#99bff8;fill-opacity:1;fill-rule:nonzero;stroke:none;stroke-width:0.992843"
         d="m 2236.2467,450.81537 17.6508,59.53906 14.1469,-25.71875 z m 0,0"
         id="path184-8" />
      <path
         style="fill:#99bff8;fill-opacity:1;fill-rule:nonzero;stroke:none;stroke-width:0.992843"
         d="m 2352.8679,443.94428 13.5846,49.99219 -100.083,-9.21094 z m 0,0"
         id="path186-9" />
      <path
         style="fill:#f5a38f;fill-opacity:1;fill-rule:nonzero;stroke:none;stroke-width:0.992843"
         d="m 2295.7837,655.46381 c 0,0 -42.533,52.71094 -42.6524,60.37109 -0.1694,11.03125 -50.442,8.01172 -39.5296,3.28907 2.5144,-1.08985 10.4312,-5.14844 11.0318,-5.67969 3.2537,-2.83985 36.7688,-69.39063 36.7688,-69.39063 l 34.3814,11.41016"
         id="path188-7" />
      <path
         style="fill:#053359;fill-opacity:1;fill-rule:nonzero;stroke:none;stroke-width:0.992843"
         d="m 2191.4535,724.15522 32.3406,-10.19922 c 0,0 11.1589,5.75781 29.3372,2.01953 0,0 4.74,7.73047 5.5294,17.83984 0.1386,1.73828 0.9858,6.91797 -0.7201,7.17969 -6.18,0.96875 -23.2918,0.55859 -42.5945,1.01172 0,0 -26.0143,0.30859 -42.2674,-5.14063 -16.2647,-5.4414 18.3748,-12.71093 18.3748,-12.71093"
         id="path190-3" />
      <path
         style="fill:#b5573f;fill-opacity:1;fill-rule:nonzero;stroke:none;stroke-width:0.992843"
         d="m 2501.7333,668.05365 c 0,0 -38.2665,-8.86718 -74.0304,-34.82812 -41.3893,-30.01953 -87.9461,-61.26172 -106.3402,-58.71875 -14.8168,2.04687 -100.957,122.21875 -100.957,122.21875 l 41.7243,18.4414 75.378,-78.52343 c 0,0 77.0069,80.53125 102.3126,86.03125 57.6155,12.51953 76.0288,-30.57813 61.9127,-54.6211"
         id="path192-6" />
      <path
         style="fill:#f5cc7d;fill-opacity:1;fill-rule:nonzero;stroke:none;stroke-width:0.992843"
         d="m 2211.534,471.41693 58.0276,124.72657 c 0.2656,0.5625 0.7701,0.98047 1.3708,1.12109 l 38.7594,10.92969 -49.5332,-123.55078 -46.141,-16.03907 c -1.6981,-0.58984 -3.246,1.17969 -2.4836,2.8125"
         id="path194-1" />
      <path
         style="fill:#053359;fill-opacity:1;fill-rule:nonzero;stroke:none;stroke-width:0.992843"
         d="m 2409.0356,353.5849 c 0,0 10.7122,-14.82812 22.6797,0 0,0 7.1273,-5.35937 13.4768,1.73047 0,0 13.3267,-6.01172 19.3182,14.57031 0,0 6.9617,-2.28125 8.9833,6.19922 2.0099,8.46875 -1.5788,14.76172 -1.5788,14.76172 0,0 4.3857,2.52735 3.5579,10.66797 -0.7085,6.92188 -6.0608,8.65234 -6.0608,8.65234 0,0 -0.069,11.50782 -4.4858,15.54688 -4.4166,4.03125 -11.2089,3.24219 -11.2089,3.24219 0,0 -0.9857,6.36718 -6.7038,6.55078 -5.7142,0.17969 -13.396,-4.38281 -19.4067,-1.11328 -6.0145,3.27343 -22.7527,2.79297 -22.7527,2.79297 0,0 -19.4683,-5.96094 -16.3418,-25.76954 0,0 -10.793,-7.63281 -3.6464,-19.36328 0,0 -8.2709,-15.84765 2.7378,-27.25 11.0201,-11.39843 21.432,-11.21875 21.432,-11.21875"
         id="path196-2" />
      <path
         style="fill:#f5a38f;fill-opacity:1;fill-rule:nonzero;stroke:none;stroke-width:0.992843"
         d="m 2349.9607,823.04586 c 0,0 2.3565,64.85936 3.812,75.84756 1.4594,10.9297 -27.127,43.8829 -23.4806,32.4219 0.851,-2.6406 3.0073,-11.3594 3.0189,-12.1719 0.01,-4.3476 -10.6082,-78.34756 -10.6082,-78.34756 l 27.2579,-17.75"
         id="path198-9" />
      <path
         style="fill:#053359;fill-opacity:1;fill-rule:nonzero;stroke:none;stroke-width:0.992843"
         d="m 2319.5106,951.57312 13.6232,-31.4492 c 0,0 11.6017,-4.7695 20.7506,-21.1406 0,0 8.8485,1.4414 16.8922,7.4726 1.3901,1.0391 5.799,3.7774 4.8826,5.2579 -3.3423,5.371 -14.8747,18.2031 -27.1964,33.2812 0,0 -16.8268,20.1094 -31.5436,28.9883 -14.7206,8.8828 2.5914,-22.4102 2.5914,-22.4102"
         id="path200-3" />
      <path
         style="fill:#f37357;fill-opacity:1;fill-rule:nonzero;stroke:none;stroke-width:0.992843"
         d="m 2322.0327,890.63562 c 2.9881,-3.082 -30.2613,-169.01947 -14.1352,-185.03119 16.1183,-16.01953 123.837,-39.59765 123.837,-39.59765 l 14.1353,-50.53125 c 0,0 45.0397,13.39844 63.2681,40.96875 9.9729,15.08203 -0.2194,49.46094 -2.0215,53.26172 -15.379,32.5 -53.3876,34.1289 -81.0499,33.84765 -25.4289,-0.26953 -70.6072,-0.6289 -70.6072,-0.6289 l -0.1079,146.69137 c 0,0 -11.1087,2.7305 -19.861,2.3906 -11.9675,-0.4726 -13.4576,-1.3711 -13.4576,-1.3711"
         id="path202-1" />
      <path
         style="fill:#ffffff;fill-opacity:1;fill-rule:nonzero;stroke:none;stroke-width:0.992843"
         d="m 2421.8887,466.42475 29.1677,-10.64063 c 0,0 0.878,0.0508 1.1437,0.0195 3.1343,-0.39843 37.5581,113.85157 48.7939,157.08203 11.2282,43.21875 -3.4886,35.01954 -3.4886,35.01954 0,0 -25.7292,16.26953 -55.6748,17.41015 -31.1316,1.19922 -24.9014,-36.87109 -24.9014,-36.87109 0,0 -16.3918,-79.46094 -14.4703,-106.50781 1.9214,-27.05079 19.4298,-55.51172 19.4298,-55.51172"
         id="path204-9" />
      <path
         style="fill:#f5a38f;fill-opacity:1;fill-rule:nonzero;stroke:none;stroke-width:0.992843"
         d="m 2422.3508,443.18647 -0.1155,14.57031 -0.024,2.57812 c 0,0 -1.9792,24.94141 5.0596,28.78907 7.0465,3.85156 23.7655,-33.32813 23.7655,-33.32813 l -7.5702,-42.3125 -21.1162,29.70313"
         id="path206-4" />
      <path
         style="fill:#f37357;fill-opacity:1;fill-rule:nonzero;stroke:none;stroke-width:0.992843"
         d="m 2445.9198,427.24506 c -3.5193,15.26172 -15.1017,25.85156 -23.6769,30.48047 l 0.1079,-14.53906 21.1162,-29.69141 2.4528,13.75"
         id="path208-7" />
      <path
         style="fill:#f5a38f;fill-opacity:1;fill-rule:nonzero;stroke:none;stroke-width:0.992843"
         d="m 2422.9437,370.52631 c -13.6732,-2.89063 -26.5379,7.73047 -26.8228,21.6875 -0.127,6.07031 0.019,13.66016 0.8971,21.87109 2.1102,19.73828 14.5513,37.60938 23.3728,36.46875 8.8139,-1.1289 31.5821,-17.00781 28.9714,-45.07812 -1.6172,-17.33203 -12.0675,-31.92188 -26.4185,-34.94922"
         id="path210-8" />
      <path
         style="fill:#f5a38f;fill-opacity:1;fill-rule:nonzero;stroke:none;stroke-width:0.992843"
         d="m 2443.1398,408.51459 c 0.5429,4.35156 3.8274,7.51172 7.3237,7.05078 3.5002,-0.44922 5.8952,-4.33203 5.3561,-8.67969 -0.5429,-4.33984 -3.8159,-7.5 -7.3276,-7.05078 -3.4963,0.44922 -5.8913,4.33985 -5.3522,8.67969"
         id="path212-4" />
      <path
         style="fill:#053359;fill-opacity:1;fill-rule:nonzero;stroke:none;stroke-width:0.992843"
         d="m 2383.5219,365.63568 c -8.1901,8.48829 -9.9844,20.01954 -4.0199,25.75 5.9722,5.73047 17.4467,3.5 25.6407,-4.99218 8.1901,-8.48828 9.9921,-20.01953 4.0199,-25.75 -5.9644,-5.72657 -17.4467,-3.5 -25.6407,4.99218"
         id="path214-5" />
      <path
         style="fill:#053359;fill-opacity:1;fill-rule:nonzero;stroke:none;stroke-width:0.992843"
         d="m 2385.9863,396.28412 c 0.516,4.08203 4.1509,6.98047 8.1438,6.47266 3.9815,-0.51172 6.8001,-4.24219 6.288,-8.33203 -0.5121,-4.08985 -4.1586,-6.98828 -8.1401,-6.46875 -3.9814,0.50781 -6.8038,4.23828 -6.2917,8.32812"
         id="path218-3" />
      <path
         style="fill:#456eb5;fill-opacity:1;fill-rule:nonzero;stroke:none;stroke-width:0.992843"
         d="m 2451.0372,455.79584 c 0,0 28.5556,-4.69922 38.1472,-0.5625 6.1031,2.63281 13.8696,55.16016 13.8696,55.16016 0,0 0.3159,53.12109 3.8853,68.10156 12.1022,50.76953 28.9983,95.23828 27.1078,97.75 -12.4219,10.35937 -64.3694,19.96094 -68.3239,15.01953 -43.5881,-54.48828 -14.686,-235.46875 -14.686,-235.46875"
         id="path220-6" />
      <path
         style="fill:#f5a38f;fill-opacity:1;fill-rule:nonzero;stroke:none;stroke-width:0.992843"
         d="m 2498.7068,509.6435 c 0,0 -28.594,89.66015 -41.1044,99.0625 -12.5104,9.39843 -68.7744,-78.58203 -68.7744,-78.58203 0,0 -24.9014,-14.33985 -26.6765,-14.48829 -7.058,-0.58984 14.7282,-4.28125 14.7282,-4.28125 l 2.6993,-22.8789 c 0,0 1.0666,0.16797 7.574,7.59765 8.7908,10.04297 16.4302,25.63282 20.0189,28.25 l 37.6929,29.02344 19.1833,-62.14062 34.6587,18.4375"
         id="path222-1" />
      <path
         style="fill:#fadeb0;fill-opacity:1;fill-rule:nonzero;stroke:none;stroke-width:0.992843"
         d="m 2260.1701,484.6435 11.8288,-1.16797 50.7347,128.07031 -13.0418,-3.35156 -49.5217,-123.55078"
         id="path224-0" />
      <path
         style="fill:#f5cc7d;fill-opacity:1;fill-rule:nonzero;stroke:none;stroke-width:0.992843"
         d="m 2372.9869,453.43647 30.527,150.78906 c 0.5045,2.48828 -1.3284,4.83984 -3.8351,4.91015 l -76.9452,2.41797 -50.7347,-128.07812 95.7243,-33.10156 c 2.3065,-0.78907 4.7708,0.64062 5.2637,3.0625"
         id="path226-6" />
      <path
         style="fill:#85b0f0;fill-opacity:1;fill-rule:nonzero;stroke:none;stroke-width:0.992843"
         d="m 2403.976,518.86615 -9.7573,21.66797 c 0,0 47.9546,80.0625 62.7638,75.6211 14.8052,-4.42969 42.7293,-91.14844 47.1073,-115.05079 4.3743,-23.89062 -4.713,-43.6875 -16.8268,-46.76953 -12.1137,-3.07031 -21.5398,17.76172 -25.2363,26.62891 -3.7043,8.88281 -17.1619,72.38281 -17.1619,72.38281 l -40.8888,-34.48047"
         id="path228-3" />
      <path
         style="fill:#f5a38f;fill-opacity:1;fill-rule:nonzero;stroke:none;stroke-width:0.992843"
         d="m 2233.4859,520.05365 c 0,0 -1.7943,-3.19922 -2.3758,-5.16015 -0.5737,-1.94922 11.2282,-8.75 15.8988,-5.64844 4.6707,3.10156 -7.8049,7.80859 -13.523,10.80859"
         id="path230-2" />
      <path
         style="fill:#f5a38f;fill-opacity:1;fill-rule:nonzero;stroke:none;stroke-width:0.992843"
         d="m 2233.9788,527.88568 c 0,0 -2.9688,-3.15234 -3.5386,-5.10937 -0.5815,-1.95313 15.1287,-9.97266 19.8032,-6.87109 4.6707,3.10156 -10.5466,8.98828 -16.2646,11.98046"
         id="path232-0" />
      <path
         style="fill:#f5a38f;fill-opacity:1;fill-rule:nonzero;stroke:none;stroke-width:0.992843"
         d="m 2239.3579,533.35443 c 0,0 -2.9649,-3.16015 -3.5386,-5.10937 -0.5815,-1.96094 11.2282,-8.75 15.9027,-5.66016 4.6707,3.10157 -6.646,7.76953 -12.3641,10.76953"
         id="path234-6" />
      <path
         style="fill:#f5a38f;fill-opacity:1;fill-rule:nonzero;stroke:none;stroke-width:0.992843"
         d="m 2382.1049,497.35443 h -2.4566 c -1.1628,0 -2.3141,-0.1289 -3.4578,-0.3789 -4.5243,-1 -16.9076,-3.49219 -17.8703,-0.99219 -1.1744,3.08203 17.8319,6.66016 17.8319,6.66016 0,0 -20.8584,-2.72657 -20.8584,0.85156 0,3.58984 21.201,5.46875 21.201,5.46875 0,0 -18.5095,-0.6875 -18.8484,1.35937 -0.3349,2.05079 22.7144,7.85157 22.7144,7.85157 0,0 -18.6713,-4.08985 -20.5234,-1.69922 -1.8521,2.39062 29.2756,13.91015 29.2756,13.91015 l -7.008,-33.03125"
         id="path236-1" />
      <path
         style="fill:#f5a38f;fill-opacity:1;fill-rule:nonzero;stroke:none;stroke-width:0.992843"
         d="m 2239.3579,533.35443 c 0,0 10.204,-5.84765 12.9071,-4.01953 2.6876,1.82032 -8.7561,10.58203 -8.7561,10.58203 l 1.3707,3.19922 c 0,0 -7.3122,-5.74218 -5.5217,-9.76172"
         id="path238-5" />
    </g>
  </g>
</svg>
