<?xml version="1.0" encoding="UTF-8" standalone="no"?>
<svg
   width="1677.5364pt"
   height="1274.8281pt"
   viewBox="0 0 1677.5364 1274.8281"
   version="1.2"
   id="svg241"
   sodipodi:docname="sessao_formacao.svg"
   inkscape:version="1.1.2 (0a00cf5339, 2022-02-04)"
   xmlns:inkscape="http://www.inkscape.org/namespaces/inkscape"
   xmlns:sodipodi="http://sodipodi.sourceforge.net/DTD/sodipodi-0.dtd"
   xmlns="http://www.w3.org/2000/svg"
   xmlns:svg="http://www.w3.org/2000/svg">
  <defs
     id="defs245" />
  <sodipodi:namedview
     id="namedview243"
     pagecolor="#ffffff"
     bordercolor="#666666"
     borderopacity="1.0"
     inkscape:pageshadow="2"
     inkscape:pageopacity="0.0"
     inkscape:pagecheckerboard="0"
     inkscape:document-units="pt"
     showgrid="false"
     inkscape:zoom="0.213375"
     inkscape:cx="1016.9889"
     inkscape:cy="597.53954"
     inkscape:window-width="1360"
     inkscape:window-height="768"
     inkscape:window-x="-3"
     inkscape:window-y="-3"
     inkscape:window-maximized="1"
     inkscape:current-layer="svg241"
     fit-margin-top="0"
     fit-margin-left="0"
     fit-margin-right="0"
     fit-margin-bottom="0" />
  <g
     id="g621"
     transform="translate(-165.28461,-271.7787)">
    <path
       style="fill:#174554;fill-opacity:1;fill-rule:nonzero;stroke:none;stroke-width:0.831997"
       d="M 1837.8087,1476.908 H 170.30375 c -2.77202,0 -5.01914,-1.9365 -5.01914,-4.3349 0,-2.386 2.24712,-4.3257 5.01914,-4.3257 H 1837.8087 c 2.7651,0 5.0123,1.9397 5.0123,4.3257 0,2.3984 -2.2472,4.3349 -5.0123,4.3349"
       id="path10" />
    <path
       style="fill:#85b0f0;fill-opacity:1;fill-rule:nonzero;stroke:none;stroke-width:0.992843"
       d="M 1401.7488,1284.0052 H 634.72632 c -29.29491,0 -53.04111,-21.8476 -53.04111,-48.8164 v -29.0312 c 0,-26.961 23.7462,-48.8203 53.04111,-48.8203 h 767.02248 c -35.0822,35.289 -35.6945,89.2382 -1.4093,125.1992 l 1.4093,1.4687"
       id="path12" />
    <path
       style="fill:#fadeb0;fill-opacity:1;fill-rule:nonzero;stroke:none;stroke-width:0.992843"
       d="m 1391.0058,1171.849 h -385.9775 c -26.58408,0 -48.13169,21.8594 -48.13169,48.8281 0,26.9609 21.54761,48.8203 48.13169,48.8203 h 386.0045 c -18.0282,-29.9492 -17.9974,-67.7695 -0.027,-97.6484"
       id="path14" />
    <path
       style="fill:#335187;fill-opacity:1;fill-rule:nonzero;stroke:none;stroke-width:0.992843"
       d="m 1367.2095,1018.8568 c 1.6866,-2.9297 -0.8664,-6.3203 -4.7515,-6.3203 H 751.60541 c -47.87752,0 -86.68322,32.4922 -86.68322,72.5703 0,40.0898 38.8057,72.582 86.68322,72.582 h 611.02199 c 3.9006,0 6.4535,-3.4101 4.7592,-6.3515 -24.189,-41.9493 -24.1313,-90.7188 -0.1771,-132.4805"
       id="path16" />
    <path
       style="fill:#fadeb0;fill-opacity:1;fill-rule:nonzero;stroke:none;stroke-width:0.992843"
       d="M 1362.3386,1028.1576 H 952.49934 c -30.27296,0 -54.81623,24.8906 -54.81623,55.6093 v 4.1719 c 0,30.7071 24.54327,55.6094 54.81623,55.6094 h 410.71716 c -18.3632,-36.9805 -18.5711,-78.4297 -0.8779,-115.3906"
       id="path18" />
    <path
       style="fill:#fadeb0;fill-opacity:1;fill-rule:nonzero;stroke:none;stroke-width:0.992843"
       d="m 623.80623,1006.0873 h 394.20607 c 34.9629,0 63.3028,-30.99996 63.3028,-69.23826 0,-38.25 -28.3399,-69.25003 -63.3028,-69.25003 H 623.80623 c 30.13426,38.38673 31.30867,94.69923 2.81851,134.55859 l -2.81851,3.9297"
       id="path20" />
    <path
       style="fill:#456eb5;fill-opacity:1;fill-rule:nonzero;stroke:none;stroke-width:0.992843"
       d="m 1076.1207,936.84904 c 0,-38.25 -28.6634,-69.25003 -64.0228,-69.25003 H 616.64032 c -1.84442,0 -3.34224,-1.63281 -3.32302,-3.62109 0.0197,-1.97266 1.49792,-3.55078 3.32302,-3.55078 h 627.33288 c 39.0251,0 70.665,34.2109 70.665,76.4219 0,42.1992 -31.6399,76.41786 -70.665,76.41786 H 616.64032 c -1.8251,0 -3.3037,-1.5898 -3.32302,-3.5585 -0.01,-1.9922 1.4786,-3.6211 3.32302,-3.6211 h 395.45758 c 35.3594,0 64.0228,-30.99996 64.0228,-69.23826"
       id="path22" />
    <path
       style="fill:#ff4a14;fill-opacity:1;fill-rule:nonzero;stroke:none;stroke-width:0.992843"
       d="m 1104.0679,1086.306 h -42.1903 c -9.068,0 -16.4341,2.8516 -16.4341,6.3711 v 0.5703 h 58.6244 v -6.9414"
       id="path24" />
    <path
       style="fill:#f37357;fill-opacity:1;fill-rule:nonzero;stroke:none;stroke-width:0.992843"
       d="m 1140.0473,1102.2982 c 0,-8.832 -11.0203,-15.9922 -24.6049,-15.9922 h -54.1462 c 10.3117,0 18.6712,5.4297 18.6712,12.1211 l -0.258,171.3789 29.9186,-22.0391 30.4886,22.0391 -0.069,-167.5078"
       id="path26" />
    <path
       style="fill:#b5573f;fill-opacity:1;fill-rule:nonzero;stroke:none;stroke-width:0.992843"
       d="M 1717.1153,1283.7552 H 577.40721 c -35.38637,0 -64.08442,29.1016 -64.08442,65 v 54.6914 c 0,35.9024 28.69805,65.0118 64.08442,65.0118 H 1717.1153 l -0.5892,-0.6329 c -48.767,-51.4882 -48.5013,-132.9179 0.5892,-184.0703"
       id="path28" />
    <path
       style="fill:#fadeb0;fill-opacity:1;fill-rule:nonzero;stroke:none;stroke-width:0.992843"
       d="m 1696.9384,1311.099 h -609.2661 c -35.3864,0 -64.0805,29.0976 -64.0805,65.0078 0,35.8984 28.6941,65.0117 64.0805,65.0117 h 609.2546 c -22.3948,-40.2617 -22.3562,-89.8008 0.012,-130.0195"
       id="path30" />
    <path
       style="fill:#113559;fill-opacity:1;fill-rule:nonzero;stroke:none;stroke-width:0.992843"
       d="m 1397.7982,1376.4388 h -49.4177 c -10.6237,0 -19.2412,8.7383 -19.2412,19.5196 v 1.75 h 68.6589 v -21.2696"
       id="path32" />
    <path
       style="fill:#335187;fill-opacity:1;fill-rule:nonzero;stroke:none;stroke-width:0.992843"
       d="m 1350.4019,1376.5169 c 11.8096,-0.012 29.445,10.129 39.3987,22.6407 l 117.1872,147.4492 68.8436,-0.039 -111.4691,-140.2304 c -13.1111,-16.5 -36.3644,-29.8711 -51.936,-29.8594 l -62.0244,0.039"
       id="path34" />
    <path
       style="fill:#b5573f;fill-opacity:1;fill-rule:nonzero;stroke:none;stroke-width:0.992843"
       d="m 319.07493,1452.2669 24.01192,-5.6914 c 0,0 19.47983,1.25 37.65435,-2.4882 0,0 1.83673,4.8906 2.62226,15.0117 0.1386,1.7383 -2.33343,10.4297 -4.03925,10.6992 -6.18008,0.957 -17.06557,-0.1328 -36.36442,0.3203 0,0 -30.38456,3.6367 -46.64537,-1.8008 -16.26081,-5.4492 22.76051,-16.0508 22.76051,-16.0508"
       id="path36" />
    <path
       style="fill:#174554;fill-opacity:1;fill-rule:nonzero;stroke:none;stroke-width:0.992843"
       d="m 584.39598,1053.4974 c 1.33232,14.1406 13.03016,19.1289 23.94266,28.0703 7.32363,6.0078 6.06455,22.2383 0.46586,32.3203 -14.17766,25.5196 -2.10238,28.668 9.32211,47.418 27.52364,45.1602 -57.75412,55.1406 -67.86561,58.5 -10.12302,3.3594 -16.98473,7.4414 -22.96845,6.7617 -18.04746,-2.0195 -34.55086,-28.039 -43.70737,-52.1015 -9.16814,-24.0586 13.07255,-25.3282 14.21226,-39.1485 1.13596,-13.8203 -24.88985,-16.789 -17.16947,-42.8906 8.34022,-28.2383 20.12668,-52.1719 35.7714,-60.7617 25.89491,-14.1992 57.36909,0.6523 64.52731,12.0625 2.12929,3.3984 3.17279,6.6797 3.4693,9.7695"
       id="path38" />
    <path
       style="fill:#fadeb0;fill-opacity:1;fill-rule:nonzero;stroke:none;stroke-width:0.992843"
       d="m 586.39821,1362.6263 c 2.24492,5.6602 14.57816,25.6914 14.57816,25.6914 l -173.16624,1.7383 -2.69924,-36.0391 c 47.54257,-0.3906 94.5422,-21.7109 138.34972,-36.9687 1.1128,2.7187 21.85181,42.8281 22.9376,45.5781"
       id="path40" />
    <path
       style="fill:#4fbda3;fill-opacity:1;fill-rule:nonzero;stroke:none;stroke-width:0.992843"
       d="m 463.64324,1224.3959 c 0,0 9.30673,-66.5899 24.25839,-73.5 14.9554,-6.918 95.95141,2.6601 108.06907,10.1718 12.1215,7.5078 -8.06688,85.7188 -11.15884,107.5899 -0.18867,1.3086 -0.38512,2.6211 -0.60455,3.9179 -5.11351,31.5821 -2.1563,63.8907 8.8254,93.7735 -44.31961,13.6484 -55.81349,21.1562 -103.34444,19.8164 L 471.9527,1280.849 c 0,0 -14.11604,-50.9727 -8.30946,-56.4531"
       id="path42" />
    <path
       style="fill:#f5a38f;fill-opacity:1;fill-rule:nonzero;stroke:none;stroke-width:0.992843"
       d="m 552.22094,1107.0677 c 0,0 3.72727,36.6602 6.91938,45.6485 3.19596,9 -8.5559,27.289 -27.70846,32.3515 -19.15257,5.0703 -5.21356,-19.5312 -5.66799,-29.039 -0.45433,-9.5 -2.30643,-54.5 -2.30643,-54.5 l 28.7635,5.539"
       id="path44" />
    <path
       style="fill:#f37357;fill-opacity:1;fill-rule:nonzero;stroke:none;stroke-width:0.992843"
       d="m 552.67527,1111.2787 c -2.38735,2.75 -5.26364,5.2382 -8.76379,7.3281 -7.23521,4.332 -13.85808,5.2812 -19.57614,3.9492 -0.47365,-11.3398 -0.8779,-21.0273 -0.8779,-21.0273 l 28.7635,5.539 c 0,0 0.16935,1.6094 0.45433,4.211"
       id="path46" />
    <path
       style="fill:#f5a38f;fill-opacity:1;fill-rule:nonzero;stroke:none;stroke-width:0.992843"
       d="m 545.51715,1040.1068 c 0,0 11.30896,3.0312 17.96268,14.2187 6.64219,11.1914 10.3387,43.5625 -13.37674,57.7422 -23.71929,14.1797 -40.99659,-7.7304 -40.56533,-28.4804 0.4351,-20.7383 5.77967,-48.2383 35.97939,-43.4805"
       id="path48" />
    <path
       style="fill:#f5a38f;fill-opacity:1;fill-rule:nonzero;stroke:none;stroke-width:0.992843"
       d="m 502.34494,1074.9076 c 0.25412,5.3789 2.97643,9.6211 6.04917,9.4609 3.08811,-0.1601 5.3831,-4.6601 5.11735,-10.043 -0.25412,-5.3867 -2.9649,-9.6289 -6.05302,-9.4687 -3.08427,0.1601 -5.37147,4.6601 -5.1135,10.0508"
       id="path50" />
    <path
       style="fill:#f5a38f;fill-opacity:1;fill-rule:nonzero;stroke:none;stroke-width:0.992843"
       d="m 562.81761,1083.1576 c -1.86373,5.3281 -0.51218,10.6914 3.01882,11.9804 3.5386,1.2774 7.92434,-1.9921 9.79576,-7.3203 1.87517,-5.332 0.52362,-10.6914 -3.01497,-11.9804 -3.5387,-1.2813 -7.92444,1.9882 -9.79961,7.3203"
       id="path52" />
    <path
       style="fill:#3a8f7a;fill-opacity:1;fill-rule:nonzero;stroke:none;stroke-width:0.992843"
       d="m 595.9707,1161.0677 c 0,0 -13.81185,7.3477 -22.27923,27.8594 -8.46728,20.5117 20.37321,125.1484 26.52637,131.8516 6.14933,6.707 23.16482,7.75 26.06426,-8.6328 2.90714,-16.3907 -6.88093,-145.8985 -30.3114,-151.0782"
       id="path54" />
    <path
       style="fill:#99bff8;fill-opacity:1;fill-rule:nonzero;stroke:none;stroke-width:0.992843"
       d="m 513.37286,1147.056 23.80791,145.0703 -92.6901,15.1719 -29.42582,-135.7109 c 0,0 76.25985,-31.3204 98.30801,-24.5313"
       id="path56" />
    <path
       style="fill:#99bff8;fill-opacity:1;fill-rule:nonzero;stroke:none;stroke-width:0.992843"
       d="m 334.47319,1151.5365 c 8.85241,-3.5391 18.51342,-4.4375 27.85475,-2.5781 17.35054,3.4375 44.92041,10.5703 55.99063,22.6289 16.69976,18.2109 32.15582,138.6679 32.15582,138.6679 l -72.0473,-16.3867 -43.9539,-142.332"
       id="path58" />
    <path
       style="fill:#f5cc7d;fill-opacity:1;fill-rule:nonzero;stroke:none;stroke-width:0.992843"
       d="M 582.35521,1399.6966 C 570.24139,1365.556 432.94681,1241.2865 396.60545,1250.849 l 19.51453,75.789 c 0,0 40.79255,123.3672 80.76102,139.2891 39.97241,15.9102 77.40349,-2.0508 77.40349,-2.0508 0,0 20.18444,-30.0508 8.07072,-64.1797"
       id="path60" />
    <path
       style="fill:#f5a38f;fill-opacity:1;fill-rule:nonzero;stroke:none;stroke-width:0.992843"
       d="m 533.06069,1200.3177 c -1.70582,3.4688 9.20658,9.6602 12.37947,12.0078 3.17279,2.3399 16.33395,-0.07 16.33395,-0.07 0,0 -26.81125,-15.7968 -28.71342,-11.9375"
       id="path62" />
    <path
       style="fill:#f38a7d;fill-opacity:1;fill-rule:nonzero;stroke:none;stroke-width:0.992843"
       d="m 415.75802,1362.7357 c 0,0 -34.88591,73.5508 -35.00528,81.2109 -0.16551,11.0313 -50.44965,8 -39.52952,3.2891 2.51442,-1.0898 10.43106,-5.1484 11.03177,-5.6875 3.25372,-2.832 32.20589,-94.1719 32.20589,-94.1719 l 31.29714,15.3594"
       id="path64" />
    <path
       style="fill:#f5cc7d;fill-opacity:1;fill-rule:nonzero;stroke:none;stroke-width:0.992843"
       d="m 426.886,1274.7474 c -1.68649,-1.8906 -19.37199,-9.0195 -32.98363,8.1914 -13.60396,17.1992 -39.70676,151.1172 -39.70676,151.1172 l 32.08652,3.1914 c 0,0 79.8562,-118.582 40.60387,-162.5"
       id="path66" />
    <path
       style="fill:#f37357;fill-opacity:1;fill-rule:nonzero;stroke:none;stroke-width:0.992843"
       d="m 323.09873,1174.3255 41.27008,122.0704 c 1.65564,4.9023 5.77573,8.4218 10.6775,9.121 38.69785,5.5508 58.88623,8.379 58.88623,8.379 0,0 7.55084,0.3906 15.55611,0.5 l 88.57771,-9.5899 c 7.70875,-0.8398 13.08023,-8.4101 11.64017,-16.3984 l -21.5553,-119.8594 c -1.33233,-7.4102 -8.04381,-12.3516 -15.12101,-11.1406 l -85.22009,14.5312 c -7.52777,-0.2031 -14.86303,-0.4101 -22.40234,-0.6133 l -67.04173,-15.2265 c -10.13071,-2.3008 -18.73666,7.9687 -15.26733,18.2265"
       id="path68" />
    <path
       style="fill:#f5a38f;fill-opacity:1;fill-rule:nonzero;stroke:none;stroke-width:0.992843"
       d="m 503.3769,1233.6966 c 0,0 23.77706,4.4688 31.9017,4.2305 8.10916,-0.25 18.64037,2.3516 18.64037,2.3516 0,0 26.53407,63.2968 30.33842,70.3593 11.36672,21.0782 42.87954,18.5899 42.35967,1.0079 -0.41589,-13.9571 -54.23859,-101.5586 -68.55099,-101.1172 -14.30097,0.4375 -59.09423,-9.043 -60.44577,-3.2618 -0.71614,3.1016 41.25466,4.5508 34.63179,7.1915 -4.1124,1.6406 -36.96513,-2.1094 -36.8497,1.8203 0.11937,3.9179 29.68379,4.289 32.86436,7.3281 3.18443,3.0508 -31.46274,-3.7188 -31.26638,2.9414 0.10784,3.3477 30.52708,0.9297 33.86163,6.0195 1.37846,2.1094 -29.99567,-5.4609 -27.4851,1.1289"
       id="path70" />
    <path
       style="fill:#f5a38f;fill-opacity:1;fill-rule:nonzero;stroke:none;stroke-width:0.992843"
       d="m 343.06763,1223.3685 c -1.86373,-0.8125 -4.03156,0.25 -4.48589,2.2578 -0.47365,2.0508 -0.56986,4.5313 0.92797,6.1719 2.98797,3.25 23.77706,6.3594 23.89258,3.2187 0.0808,-2.4101 -13.86576,-8.8085 -20.33466,-11.6484"
       id="path72" />
    <path
       style="fill:#f5a38f;fill-opacity:1;fill-rule:nonzero;stroke:none;stroke-width:0.992843"
       d="m 339.02838,1231.5677 c 0,0 -2.08316,7.8985 -0.27719,7.9688 1.80202,0.07 24.29683,2.332 25.30179,-0.3906 0.99737,-2.7071 -22.129,-9.1797 -25.0246,-7.5782"
       id="path74" />
    <path
       style="fill:#f5a38f;fill-opacity:1;fill-rule:nonzero;stroke:none;stroke-width:0.992843"
       d="m 338.06186,1239.7279 c 0,0 -0.64299,3.5078 1.22064,5.539 1.86373,2.0313 22.81064,0.6993 23.58069,-2.6679 0.76632,-3.3828 -24.06203,-5.461 -24.80133,-2.8711"
       id="path76" />
    <path
       style="fill:#f5a38f;fill-opacity:1;fill-rule:nonzero;stroke:none;stroke-width:0.992843"
       d="m 341.25397,1247.1459 c 0,0 -0.0306,2.6914 1.02428,3.8398 1.05504,1.1523 16.53031,-0.4492 18.07053,-3.7969 1.53637,-3.3398 -17.28884,-3.5117 -19.09481,-0.043"
       id="path78" />
    <path
       style="fill:#f5a38f;fill-opacity:1;fill-rule:nonzero;stroke:none;stroke-width:0.992843"
       d="m 393.73676,1432.806 c 0,0 -7.38533,27.1328 -14.80911,45.0625 -4.85939,11.75 -6.11078,23.4492 -9.32212,29.3086 -8.13232,14.8203 -21.43208,15.4219 -31.99031,6.5195 -10.55429,-8.9101 3.608,-46.4609 3.608,-46.4609 l 33.33022,-47.5703 19.18332,13.1406"
       id="path80" />
    <path
       style="fill:#f37357;fill-opacity:1;fill-rule:nonzero;stroke:none;stroke-width:0.992843"
       d="m 369.60553,1507.1771 c 2.85706,-5.1992 4.17775,-15.0312 7.83582,-25.3789 -5.09813,3 -13.65403,5.2578 -18.30542,4 -17.05404,-4.6328 -17.91271,-18.5625 -17.91271,-18.5625 0,0 -17.77794,38.4922 -7.21977,47.3906 10.56201,8.9024 27.46976,7.3711 35.60208,-7.4492"
       id="path82" />
    <path
       style="fill:#b5573f;fill-opacity:1;fill-rule:nonzero;stroke:none;stroke-width:0.992843"
       d="m 427.82166,1171.9388 27.2849,143.2969 -16.42247,-1 -4.75155,-0.3398 -28.50553,-142.5586 22.39465,0.6015"
       id="path84" />
    <path
       style="fill:#fadeb0;fill-opacity:1;fill-rule:nonzero;stroke:none;stroke-width:0.992843"
       d="m 522.89528,1457.5482 c 9.34518,17.4375 27.96643,20.1484 44.73549,18.7187 18.54033,-1.5781 38.95582,-11.871 44.43514,-33.4609 5.85665,-23.0703 -1.84442,-51.6094 -15.34822,-69.707 -69.10172,-92.6211 -69.63303,-101.75 -97.14514,-114.0625 -29.69916,-13.2813 -139.99383,177.8711 -139.99383,177.8711 l 30.29208,15.6992 c 0,0 45.42482,-38.5195 74.45398,-72.3008 3.40769,-3.9687 13.1303,-24.5078 13.1303,-24.5078 0,0 39.26002,90.2187 45.4402,101.75"
       id="path86" />
    <path
       style="fill:#f5cc7d;fill-opacity:1;fill-rule:nonzero;stroke:none;stroke-width:0.992843"
       d="m 523.91177,900.44664 c -29.20629,4.4805 -38.35511,43.1602 -14.35095,60.8399 4.30491,3.1719 7.26212,7.9023 8.47507,13.1601 l 4.18169,18.1094 c 1.15125,4.9922 5.88357,8.24996 10.88155,7.48046 l 11.05878,-1.68746 c 4.99799,-0.7735 8.57513,-5.3008 8.22085,-10.4102 -1.28993,-18.6601 -3.0958,-25.4414 2.97653,-33.6719 17.78555,-24.0898 -2.22569,-58.3007 -31.44352,-53.8203"
       id="path88" />
    <path
       style="fill:#fadeb0;fill-opacity:1;fill-rule:nonzero;stroke:none;stroke-width:0.992843"
       d="m 530.2883,985.89594 c -0.01,0 -0.0197,0 -0.0266,0 -1.47092,0.2109 -2.83015,-0.8282 -3.03804,-2.3204 l -5.44078,-39.4882 -9.11806,-7.9219 c -1.12443,-0.9766 -1.25149,-2.6992 -0.28498,-3.8399 0.96652,-1.1484 2.6607,-1.2773 3.78504,-0.2968 l 10.66606,9.2578 5.71412,41.5312 c 0.20799,1.4805 -0.79707,2.8477 -2.25635,3.0782"
       id="path90" />
    <path
       style="fill:#fadeb0;fill-opacity:1;fill-rule:nonzero;stroke:none;stroke-width:0.992843"
       d="m 543.83449,985.49744 c 0.01,0 0.0187,0 0.0266,0 1.47092,-0.2422 2.46434,-1.6406 2.21791,-3.1289 l -6.29561,-39.3516 6.39576,-10.3007 c 0.78928,-1.2774 0.41194,-2.961 -0.83946,-3.7578 -1.25908,-0.8125 -2.91482,-0.4297 -3.7042,0.8476 l -7.49317,12.0508 6.6345,41.3906 c 0.23874,1.4688 1.60566,2.4805 3.05736,2.25"
       id="path92" />
    <path
       style="fill:#94d9c7;fill-opacity:1;fill-rule:nonzero;stroke:none;stroke-width:0.992843"
       d="m 517.90883,974.00524 c 0.0384,0.1524 0.0887,0.293 0.12706,0.4414 l 4.18169,18.1094 c 1.15125,4.9922 5.88357,8.24996 10.88155,7.48046 l 11.05878,-1.68746 c 4.99799,-0.7735 8.57513,-5.3008 8.22085,-10.4102 -0.56985,-8.3008 -1.25139,-14.25 -1.28993,-19.0234 l -33.18,5.0898"
       id="path94" />
    <path
       style="fill:#f37357;fill-opacity:1;fill-rule:nonzero;stroke:none;stroke-width:0.992843"
       d="m 518.40939,612.15761 -11.57088,-16.98047 -20.34619,0.0508 c -2.31422,0 -3.62722,-2.69141 -2.2256,-4.5625 l 12.34093,-16.41016 -6.3303,-19.61718 c -0.71998,-2.23047 1.39009,-4.33203 3.57714,-3.55078 l 19.20264,6.82812 16.43411,-12.16797 c 1.87132,-1.39062 4.49358,0.008 4.4435,2.35938 l -0.4698,20.6289 16.48033,12.10157 c 1.88286,1.37109 1.37846,4.33984 -0.83945,5.01171 l -19.48752,5.91797 -6.24947,19.64063 c -0.70845,2.23828 -3.63875,2.67969 -4.95944,0.75"
       id="path96" />
    <path
       style="fill:#99bff8;fill-opacity:1;fill-rule:nonzero;stroke:none;stroke-width:0.992843"
       d="m 1589.9359,642.91542 -8.4981,-12.46875 -14.9516,0.0312 c -1.6942,0.008 -2.6607,-1.97266 -1.6365,-3.33984 l 9.068,-12.0625 -4.6514,-14.41016 c -0.5314,-1.63672 1.0242,-3.17969 2.63,-2.60937 l 14.1083,5.01953 12.0637,-8.9375 c 1.3823,-1.01953 3.3114,0 3.2614,1.73047 l -0.3427,15.16015 12.1137,8.87891 c 1.3824,1.00781 1.0166,3.1914 -0.6199,3.6914 l -14.3124,4.33985 -4.5859,14.42969 c -0.5199,1.64843 -2.6801,1.96875 -3.6466,0.54687"
       id="path98" />
    <path
       style="fill:#f38a7d;fill-opacity:1;fill-rule:nonzero;stroke:none;stroke-width:0.992843"
       d="m 1351.7034,459.61855 -18.7867,-3.21094 -11.0125,16.25 -20.8199,-5.10938 -6.465,20.96875 -23.7848,-4.71875 -8.3018,18.57032 -23.6268,-0.75 0.2849,-9.07032 17.6547,0.5586 8.7638,-19.58985 22.8683,4.53907 6.5768,-21.32032 22.9684,5.63282 10.7507,-15.86329 17.4198,2.97266 4.9095,-11.92187 8.2517,3.5 -7.6511,18.5625"
       id="path100" />
    <path
       style="fill:#4fbda3;fill-opacity:1;fill-rule:nonzero;stroke:none;stroke-width:0.992843"
       d="m 818.22347,518.70839 -13.76177,4.28906 -9.23744,-21.69922 -20.87761,3.73828 -9.5301,-15.08984 -7.54315,4.90234 12.75681,20.17969 19.78403,-3.55078 9.61862,22.57813 20.70047,-6.44922 -1.90986,-8.89844"
       id="path102" />
    <path
       style="fill:#f38a7d;fill-opacity:1;fill-rule:nonzero;stroke:none;stroke-width:0.992843"
       d="m 426.96309,807.25526 -3.94295,-17.8789 13.86961,11.76172 z m -13.92748,-58.65625 -20.59263,12.70704 21.36279,97.35937 c 1.84057,8.41016 11.29359,12.50002 18.55186,8.02344 4.57057,-2.83203 6.83855,-8.30078 5.63723,-13.58985 l -5.22519,-22.86328 21.61691,-13.33984 17.86263,15.17187 c 4.08154,3.46094 9.8689,3.89844 14.41256,1.09766 l 0.38503,-0.23828 c 7.26211,-4.48047 8.03217,-14.87891 1.50551,-20.41016 l -75.5167,-63.91797"
       id="path104" />
    <path
       style="fill:#f5cc7d;fill-opacity:1;fill-rule:nonzero;stroke:none;stroke-width:0.992843"
       d="m 1647.2088,858.05605 c 1.9214,-7.02735 8.14,-10.70704 14.9323,-8.78907 7.0581,1.98047 10.2541,8.3086 8.4597,15.3711 -1.8829,6.89846 -8.0052,10.74996 -15.0633,8.75776 -6.9194,-1.9492 -10.2117,-8.44917 -8.3287,-15.33979 z m 8.4057,-17.33985 c 1.0551,-2.75781 0.6931,-12.6289 14.2162,-22.1289 5.5601,-3.85938 10.123,-7.14063 11.3552,-11.64844 2.1294,-7.78125 -5.9452,-11.51172 -13.9774,-11.47266 -4.1509,0.0195 -7.5509,-3.36719 -7.6895,-7.57812 -0.1271,-4.28125 3.1459,-7.8711 7.3622,-8.08203 4.6167,-0.23047 10.0383,0.22265 15.7333,1.83203 17.2504,4.85937 22.4447,16.73828 19.4413,27.75 -2.7609,10.07031 -10.7161,14.96875 -17.2119,19.14062 -10.9239,7.03906 -10.9124,14.88672 -11.848,17.07813 l -17.3814,-4.89063"
       id="path106" />
    <path
       style="fill:#f5cc7d;fill-opacity:1;fill-rule:nonzero;stroke:none;stroke-width:0.992843"
       d="m 1079.3821,334.32558 c -26.8613,0 -40.2765,33.52343 -21.0624,52.73047 3.45,3.44921 5.4716,8.10937 5.8644,13.01171 l 1.3322,16.85938 c 0.362,4.64844 4.1894,8.23047 8.7831,8.23047 h 10.1693 c 4.5936,0 8.4211,-3.58203 8.783,-8.23047 1.3438,-16.94922 0.6316,-23.30078 7.1967,-29.87109 19.2141,-19.19922 5.8065,-52.73047 -21.0663,-52.73047"
       id="path108" />
    <path
       style="fill:#fadeb0;fill-opacity:1;fill-rule:nonzero;stroke:none;stroke-width:0.992843"
       d="m 1073.668,412.04823 c -0.012,0 -0.02,0 -0.031,0 -1.3515,-0.0195 -2.4258,-1.14062 -2.4143,-2.51172 l 0.3928,-36.25781 -7.1351,-8.38281 c -0.8779,-1.02734 -0.7701,-2.59766 0.2542,-3.5 1.028,-0.89063 2.5644,-0.77734 3.4501,0.26172 l 8.3402,9.80078 -0.412,38.14062 c -0.012,1.35938 -1.1051,2.44922 -2.445,2.44922"
       id="path110" />
    <path
       style="fill:#fadeb0;fill-opacity:1;fill-rule:nonzero;stroke:none;stroke-width:0.992843"
       d="m 1085.9011,413.55605 c 0.01,0 0.02,0 0.027,0 1.3514,-0.008 2.4258,-1.12891 2.4181,-2.5 l -0.3967,-36.25782 7.1389,-8.38281 c 0.8741,-1.03906 0.7663,-2.60937 -0.2579,-3.5 -1.0243,-0.89844 -2.5645,-0.77734 -3.4501,0.26172 l -8.3402,9.80078 0.4157,38.12891 c 0.01,1.35937 1.1013,2.44922 2.4452,2.44922"
       id="path112" />
    <path
       style="fill:#94d9c7;fill-opacity:1;fill-rule:nonzero;stroke:none;stroke-width:0.992843"
       d="m 1064.134,399.64589 c 0.012,0.14062 0.038,0.28125 0.05,0.42187 l 1.3322,16.85938 c 0.362,4.64844 4.1894,8.23047 8.7831,8.23047 h 10.1693 c 4.5936,0 8.4211,-3.58203 8.783,-8.23047 0.6045,-7.53906 0.7894,-12.98047 1.3901,-17.28125 h -30.5078"
       id="path114" />
    <path
       style="fill:#fadeb0;fill-opacity:1;fill-rule:nonzero;stroke:none;stroke-width:0.992843"
       d="m 1131.0755,288.16542 -23.2226,39.94141 39.3679,-29.69922 z m 0,0"
       id="path116" />
    <path
       style="fill:#fadeb0;fill-opacity:1;fill-rule:nonzero;stroke:none;stroke-width:0.992843"
       d="m 1036.672,277.87636 23.7347,41.01172 -4.0392,-47.10938 z m 0,0"
       id="path118" />
    <path
       style="fill:#fadeb0;fill-opacity:1;fill-rule:nonzero;stroke:none;stroke-width:0.992843"
       d="m 995.39042,336.59901 37.76218,15.0586 -38.55156,2.34765 z m 0,0"
       id="path120" />
    <path
       style="fill:#fadeb0;fill-opacity:1;fill-rule:nonzero;stroke:none;stroke-width:0.992843"
       d="m 1111.8922,390.57558 15.1441,19.46093 11.1088,-13.32031 z m 0,0"
       id="path122" />
    <path
       style="fill:#fadeb0;fill-opacity:1;fill-rule:nonzero;stroke:none;stroke-width:0.992843"
       d="m 1127.0363,354.73573 34.3198,-14.33984 1.0165,15.35937 z m 0,0"
       id="path124" />
    <path
       style="fill:#fadeb0;fill-opacity:1;fill-rule:nonzero;stroke:none;stroke-width:0.992843"
       d="m 1037.1841,393.64589 -32.3021,15.35937 10.0922,12.29297 z m 0,0"
       id="path126" />
    <path
       style="fill:#94d9c7;fill-opacity:1;fill-rule:nonzero;stroke:none;stroke-width:0.992843"
       d="m 652.87383,677.06776 c 1.79443,0.80079 4.0431,1.44922 7.29682,2.39063 8.61366,2.5 17.16177,1.41016 19.69551,-7.58203 2.42195,-8.6211 -4.23177,-14.23828 -13.72333,-16.98828 l -6.49591,-1.89063 z m 10.66606,-37.8789 6.24169,1.80859 c 9.99596,2.89844 16.538,0.28125 18.32465,-6.05859 1.82134,-6.46094 -2.09085,-11.29297 -10.70441,-13.79297 -4.12009,-1.1875 -6.56521,-1.62891 -8.26334,-1.83984 z m -9.64947,-38.14063 c 5.28296,0.42969 15.61387,2.59766 25.09774,5.34766 11.61326,3.37109 18.41327,6.58203 23.49987,12.01953 4.96712,4.87109 7.58169,11.93359 5.40223,19.66016 -2.14083,7.60156 -8.50967,13.42187 -19.00619,14.22265 l -0.069,0.25 c 8.87163,5.44922 13.91969,14.85938 10.81225,25.87891 -2.17552,7.73047 -7.39303,12.78906 -13.84645,15.57812 -7.51239,3.17188 -18.53263,2.99219 -35.27094,-1.86718 -9.3645,-2.71094 -16.17613,-5.3711 -20.23835,-7.24219 l 23.61913,-83.84766"
       id="path128" />
    <path
       style="fill:#f5cc7d;fill-opacity:1;fill-rule:nonzero;stroke:none;stroke-width:0.992843"
       d="m 1468.8405,637.9662 c 1.0628,4.75 -1.7943,9.53125 -6.4689,10.67188 -4.3549,1.07031 -9.9074,1.89843 -16.2723,2.11718 -33.1724,1.14063 -50.9541,-19.21875 -51.8706,-46.94921 -1.1051,-33.20704 21.6285,-52.5 50.6653,-53.48829 5.7682,-0.19921 10.8355,0.23829 14.944,0.96094 4.9287,0.86719 8.1323,5.76953 7.058,10.72656 l -0.069,0.3125 c -1.0127,4.66016 -5.4485,7.73047 -10.073,6.89063 -3.0381,-0.55078 -6.465,-0.85938 -10.2617,-0.73047 -17.2195,0.58984 -30.2536,11.58984 -29.5335,33.25781 0.6506,19.49219 12.4526,31.38282 31.8092,30.71094 3.2152,-0.10937 6.5959,-0.57031 9.7111,-1.23828 4.6822,-1.01172 9.2951,2.02734 10.3617,6.75781"
       id="path130" />
    <path
       style="fill:#456eb5;fill-opacity:1;fill-rule:nonzero;stroke:none;stroke-width:0.992843"
       d="m 390.78724,1069.9154 -22.33689,-54.1289 c -1.84441,-4.4805 0.3735,-9.6094 4.87861,-11.2578 l 5.44077,-1.9922 c 4.49742,-1.6406 9.4338,0.8711 10.83542,5.5 l 16.93466,56.1211 z m 2.34497,21.1015 c -2.31411,-6.9804 1.54021,-14.8085 8.42884,-17.1093 7.16591,-2.4024 13.7041,1.1601 16.42257,8.3984 2.5914,7.3008 -0.3042,14.5313 -7.76652,17.2617 -7.5817,2.7696 -14.59738,-1.039 -17.08489,-8.5508"
       id="path132" />
    <path
       style="fill:#f38a7d;fill-opacity:1;fill-rule:nonzero;stroke:none;stroke-width:0.992843"
       d="m 1408.1368,1020.7982 c 0,0 57.5655,25.4492 62.6444,26.5781 3.1844,0.711 39.7722,-37.7578 59.7141,-52.78896 0.928,-0.6993 4.4781,-5.8086 5.4639,-6.3204 11.8673,-6.0507 -8.194,28.78906 -8.194,28.78906 0,0 -42.4444,54.7617 -52.0477,59.4492 -12.0521,5.8907 -71.6622,-24 -71.308,-25.7265 l 3.7273,-29.9805"
       id="path134" />
    <path
       style="fill:#174554;fill-opacity:1;fill-rule:nonzero;stroke:none;stroke-width:0.992843"
       d="m 1399.0072,966.13804 c 2.4759,-17.2109 14.2547,-53.8398 3.3923,-68.4921 -15.2789,-20.5977 -47.5501,-19.7071 -62.8022,0.082 -6.9886,9.0781 -10.7738,20.1992 -14.4587,31.0898 -2.3758,7.0313 -4.7823,14.0977 -8.1324,20.7188 -2.9956,5.9219 -6.4265,13.3203 -12.1253,16.9297 -25.3442,16.0117 -53.7342,26.332 -55.5554,62.40226 -2.1679,42.7774 44.0307,96.3086 100.7607,70.3984 21.717,-9.9179 50.1647,-41.9882 59.4522,-64.1796 4.1894,-10.0118 2.1756,-8.961 -0.1309,-24.1993 -2.0677,-13.65226 -12.3987,-30.89056 -10.4003,-44.74996"
       id="path136" />
    <path
       style="fill:#335187;fill-opacity:1;fill-rule:nonzero;stroke:none;stroke-width:0.992843"
       d="m 1368.1452,991.72794 77.0646,43.01946 -18.1746,27.9883 c 0,0 -58.0237,-22.4297 -69.7524,-25.6367 -11.7286,-3.2227 -2.4951,-46.54296 10.8624,-45.37106"
       id="path138" />
    <path
       style="fill:#f5a38f;fill-opacity:1;fill-rule:nonzero;stroke:none;stroke-width:0.992843"
       d="m 1366.8245,954.40764 c 0,0 -2.01,29.7695 -3.5002,38.1211 -1.5479,8.61716 -2.4912,44.52726 15.1904,48.91786 17.674,4.3789 11.0395,-44.23816 11.336,-52.96086 0.2849,-8.7188 2.0214,-37.0391 2.0214,-37.0391 l -25.0476,2.961"
       id="path140" />
    <path
       style="fill:#f37357;fill-opacity:1;fill-rule:nonzero;stroke:none;stroke-width:0.992843"
       d="m 1366.5704,957.97794 c 1.3283,2 2.9263,3.9297 4.817,5.7383 6.5189,6.2304 13.2189,8.2617 19.3335,7.4492 0.5506,-9.8672 1.1512,-19.7188 1.1512,-19.7188 l -25.0476,2.961 c 0,0 -0.1002,1.3476 -0.2541,3.5703"
       id="path142" />
    <path
       style="fill:#f5a38f;fill-opacity:1;fill-rule:nonzero;stroke:none;stroke-width:0.992843"
       d="m 1385.0914,897.41544 c 0,0 -10.7468,0.3633 -18.9755,8.9726 -8.2208,8.6094 -18.059,36.7579 0.3351,54.3672 18.4017,17.6133 36.5993,2.4805 40.396,-16.1367 3.7927,-18.6211 6.2763,-45.1601 -21.7556,-47.2031"
       id="path144" />
    <path
       style="fill:#174554;fill-opacity:1;fill-rule:nonzero;stroke:none;stroke-width:0.992843"
       d="m 1395.1759,898.29824 c 0,0 -11.2204,29.3594 -37.7044,26.8789 -11.9983,-1.1211 -14.7167,15.5 -14.7167,15.5 0,0 9.815,-39.4687 22.1367,-45.3398 12.3218,-5.8594 30.2844,2.9609 30.2844,2.9609"
       id="path146" />
    <path
       style="fill:#f5a38f;fill-opacity:1;fill-rule:nonzero;stroke:none;stroke-width:0.992843"
       d="m 1360.8792,932.27874 c 0.6046,5.1484 -1.6826,9.6601 -5.1135,10.0781 -3.4308,0.4101 -6.7037,-3.4297 -7.3044,-8.5781 -0.6007,-5.1524 1.6865,-9.6602 5.1135,-10.0703 3.4309,-0.4219 6.7038,3.4179 7.3044,8.5703"
       id="path148" />
    <path
       style="fill:#b5573f;fill-opacity:1;fill-rule:nonzero;stroke:none;stroke-width:0.992843"
       d="m 1557.7801,941.92714 -65.2357,135.23826 c -1.5556,3.2226 -1.0743,6.9726 1.0551,8.2422 l 47.6618,28.3086 59.5755,-119.83986 c 0,0 -25.9526,-39.3984 -35.6906,-54.1679 -1.8058,-2.7305 -5.51,-1.6094 -7.3661,2.2187"
       id="path150" />
    <path
       style="fill:#fadeb0;fill-opacity:1;fill-rule:nonzero;stroke:none;stroke-width:0.992843"
       d="m 1500.9154,1072.7162 56.7685,-117.66796 c 1.8521,-3.832 5.5601,-4.9609 7.3622,-2.2227 7.9052,12 19.8649,30.1407 28.4593,43.1797 l -53.4762,107.57026 -38.051,-22.6093 c -2.137,-1.2696 -2.6222,-5.0196 -1.0628,-8.25"
       id="path152" />
    <path
       style="fill:#f38a7d;fill-opacity:1;fill-rule:nonzero;stroke:none;stroke-width:0.992843"
       d="m 1531.9277,985.68884 c 0.67,-1.1914 3.762,-3.7617 5.0634,-4.1133 2.7532,-0.7382 6.0839,-0.6289 6.6268,1.1602 0.797,2.6211 -7.3353,5.5195 -7.3353,5.5195 l -4.4242,6.5117 c 0,0 -2.0716,-5.3203 0.069,-9.0781"
       id="path154" />
    <path
       style="fill:#f5a38f;fill-opacity:1;fill-rule:nonzero;stroke:none;stroke-width:0.992843"
       d="m 1364.5874,984.49744 c 0,0 20.0882,16.82806 25.8447,22.67966 5.7296,5.8008 15.7449,12.8906 15.7449,12.8906 l -16.2455,-22.78896 -10.2809,-9.7422 -15.0632,-3.0391"
       id="path156" />
    <path
       style="fill:#f38a7d;fill-opacity:1;fill-rule:nonzero;stroke:none;stroke-width:0.992843"
       d="m 1613.921,1254.2552 c -3.1152,-2.6289 -5.9645,-10.1367 -7.1082,-13.4297 -6.7538,-35.4492 -38.6708,-131.3203 -73.4374,-131.3203 -30.2805,0 -123.837,74.4336 -167.5867,117.4414 -12.6375,12.4219 -11.7788,1.8789 -4.0392,4.7813 4.6207,1.7305 35.86,54.4375 40.858,54.668 15.2789,0.7109 29.4027,-9.668 42.1479,-16.8907 19.4413,-11.0078 32.9568,-23.5586 44.2504,-40.6679 28.6172,-43.3321 39.3409,-68.8321 47.9584,-85.4219 0,0 8.1323,34.1133 12.1137,42.3398 9.0103,18.5703 35.9217,64.3321 46.449,82.1602 l 41.2701,-1.1367 c 0,0 -18.8369,-9.1016 -22.876,-12.5235"
       id="path158" />
    <path
       style="fill:#f5a38f;fill-opacity:1;fill-rule:nonzero;stroke:none;stroke-width:0.992843"
       d="m 1536.067,1129.306 c 0,0 -138.6461,65.5508 -147.3985,88.082 -8.7445,22.5274 -2.0214,55.9883 18.1785,62.8204 20.1882,6.8281 145.3768,-101.7422 145.3768,-101.7422 0,0 16.153,30.0507 39.0329,50.5312 12.2023,10.918 32.8258,19.8281 44.5969,27.8203 10.3002,7.0078 12.6143,13.8282 12.6143,13.8282 l 28.9445,1.3593 c 0,0 -4.8825,-1.6875 -13.6347,-13.6484 -29.5529,-40.3984 -98.1117,-134.3203 -127.7107,-129.0508"
       id="path160" />
    <path
       style="fill:#113559;fill-opacity:1;fill-rule:nonzero;stroke:none;stroke-width:0.992843"
       d="m 1482.5599,1121.1185 c 0,0 44.5353,48.6992 53.2876,112.8867 0,0 -69.7793,30.4922 -104.103,48.9336 -34.3236,18.4297 -72.6865,-0.6836 -84.8004,-21.1719 -12.1175,-20.4804 0,-78.1796 0,-78.1796 l 71.3466,-11.2618 64.2692,-51.207"
       id="path162" />
    <path
       style="fill:#335187;fill-opacity:1;fill-rule:nonzero;stroke:none;stroke-width:0.992843"
       d="m 1588.2302,1255.7357 c -3.5464,-1.3672 -4.7901,16.8398 -5.3716,20.9023 -0.6583,4.5704 1.4903,7.668 2.0409,8.0508 1.467,1.0274 58.6397,2.1797 69.5714,-0.8008 0.7393,-0.1992 2.2872,-1.1406 2.5644,-1.3828 8.0246,-7.1093 -29.1292,-25.957 -36.6108,-24.3789 -6.6614,1.4102 -16.2338,3.7813 -32.1943,-2.3906"
       id="path164" />
    <path
       style="fill:#456eb5;fill-opacity:1;fill-rule:nonzero;stroke:none;stroke-width:0.992843"
       d="m 1363.4322,992.40764 c 0,0 -10.8701,-0.1016 -22.5025,25.32026 -14.3048,31.2383 6.1031,150.4609 4.6128,167.4687 0,0 5.0481,5.8789 34.3931,10.1797 26.0026,3.8125 40.7117,-15.0273 40.7117,-15.0273 0,0 -6.6268,-46.0313 3.4,-89.3321 5.4292,-23.4687 8.2978,-46.2187 -13.1612,-67.3085 -21.4667,-21.1016 -47.4539,-31.30076 -47.4539,-31.30076"
       id="path166" />
    <path
       style="fill:#456eb5;fill-opacity:1;fill-rule:nonzero;stroke:none;stroke-width:0.992843"
       d="m 1636.2271,1256.8685 c -3.5502,-1.3711 -6.6036,16.168 -6.338,20.457 0.2734,4.6133 1.4285,7.961 1.9792,8.3399 1.4709,1.0312 58.7014,1.8828 69.633,-1.0977 0.7393,-0.1992 2.2872,-1.1406 2.5645,-1.3789 8.0245,-7.1133 -33.2878,-24.8906 -40.781,-23.3125 -6.6537,1.4024 -11.0972,3.1602 -27.0577,-3.0078"
       id="path168" />
    <path
       style="fill:#f37357;fill-opacity:1;fill-rule:nonzero;stroke:none;stroke-width:0.992843"
       d="M 1597.9605,936.32554 1489.8259,1096.056 c -2.4951,3.6797 -1.9021,8.1719 1.2322,9.3516 l 73.1293,27.6484 86.4907,-125.7773 -43.1567,-72.54296 c -1.9407,-3.2695 -6.8194,-2.457 -9.5609,1.5898"
       id="path170" />
    <path
       style="fill:#f5a38f;fill-opacity:1;fill-rule:nonzero;stroke:none;stroke-width:0.992843"
       d="m 1572.2504,1057.4388 c -1.3861,-2.7226 -12.6142,3.3164 -12.6142,3.3164 0,0 -9.9961,1.7617 -10.7046,1.3828 -0.8009,-0.4218 6.7115,-1.0625 6.7115,-1.0625 0,0 12.2832,-4.2578 12.1446,-5.6484 -0.5622,-5.75 -8.2517,1.3984 -14.2855,1.6602 -4.5937,0.1992 -9.5917,0 -14.0275,-0.6407 -1.7635,-1.0078 2.7339,-3.2695 2.7339,-3.2695 0,0 5.9144,-2.6914 4.9672,-4.2695 -2.2988,-3.8203 -16.1068,3.4492 -19.0139,6.1484 -1.9523,1.8125 -4.3781,5.3203 -7.7704,7.2695 -14.7553,8.461 -32.4408,22.9922 -53.3069,33.1797 -6.9116,-5.8867 -73.5952,-66.5976 -75.2701,-68.0781 l -36.4261,29.1016 c 0.05,0.039 104.4804,80.7265 110.2869,80.539 7.293,-0.25 50.7848,-46.8125 62.5559,-57.9101 1.7828,-1.6797 12.9608,-2.9414 16.0374,-2.5 6.8309,0.9609 19.6339,-4.4805 19.6339,-4.4805 3.9545,-4.2305 -14.5473,0.051 -12.7953,-1.0586 0.7817,-0.4805 5.2945,-0.9531 9.7996,-1.6016 4.5822,-0.6679 8.733,-3.3281 9.2836,-4.6015 1.0975,-2.4883 -10.3001,1.082 -10.3001,1.082 l -9.4916,0.6016 9.0872,-1.8828 c 0,0 14.1276,-4.6289 12.7645,-7.2774"
       id="path172" />
    <path
       style="fill:#85b0f0;fill-opacity:1;fill-rule:nonzero;stroke:none;stroke-width:0.992843"
       d="m 1381.572,1008.9662 c -11.7788,-12.23046 -34.4237,-10.44926 -41.0275,7 -1.8327,4.8515 -1.7558,18.7812 0.3466,23.9023 8.3673,20.4805 57.1997,53.9375 57.1997,53.9375 l 26.9229,-37.207 -43.4417,-47.6328"
       id="path174" />
    <path
       style="fill:#f5a38f;fill-opacity:1;fill-rule:nonzero;stroke:none;stroke-width:0.992843"
       d="m 897.66389,653.05605 c 0,-1.57032 1.90218,-11.6875 1.90218,-11.6875 0,0 -4.43582,-14.35157 -4.89024,-14.38282 -9.13729,-0.66797 -16.02591,5.63282 -14.48954,14.10157 l 0.0887,0.28125 c 4.73233,15.32031 17.45839,26.6875 33.03381,29.51953 3.54629,0.64843 7.30441,1.32812 11.15884,2.00781 -1.8175,-6.14844 -2.9303,-12.42969 -2.86869,-18.89063 -13.34974,-0.0977 -23.93487,-0.36718 -23.93487,-0.94921"
       id="path176" />
    <path
       style="fill:#335187;fill-opacity:1;fill-rule:nonzero;stroke:none;stroke-width:0.992843"
       d="m 1052.1473,589.73573 c -0.2542,-0.76953 -80.31826,52.0625 -80.31826,52.0625 0,0 -34.17352,0.33985 -59.41764,0.11719 -0.0611,7.74219 1.17056,15.26172 3.17289,22.63281 24.94761,4.78907 53.36837,9.84766 59.83343,9.33985 12.04442,-0.94141 72.47088,-31.51953 72.47088,-31.51953 0,0 4.4473,-52.0625 4.2587,-52.63282"
       id="path178" />
    <path
       style="fill:#456eb5;fill-opacity:1;fill-rule:nonzero;stroke:none;stroke-width:0.992843"
       d="m 1053.0445,787.00526 c -0.1656,-1.32812 -17.081,-60.17968 -18.8484,-112.88671 -1.3669,-40.88282 11.1126,-77.51172 17.4968,-84.21094 2.3681,-2.5 24.3508,-7.85156 24.3508,-7.85156 l -8.0053,13.48046 c -8.1323,15.57032 -10.3425,29.3711 -13.8696,46.94922 -10.2424,50.97266 35.7638,152.96094 33.4265,153.6211 -2.6107,0.74218 -33.9001,-3.87891 -34.5508,-9.10157"
       id="path180" />
    <path
       style="fill:#99bff8;fill-opacity:1;fill-rule:nonzero;stroke:none;stroke-width:0.992843"
       d="m 877.57566,581.28651 -14.04675,9.30079 42.00934,71.73828 13.21114,-58.25 -41.17373,-22.78907"
       id="path182" />
    <path
       style="fill:#99bff8;fill-opacity:1;fill-rule:nonzero;stroke:none;stroke-width:0.992843"
       d="m 886.27015,569.99745 17.6508,59.53906 14.1469,-25.71875 z m 0,0"
       id="path184" />
    <path
       style="fill:#99bff8;fill-opacity:1;fill-rule:nonzero;stroke:none;stroke-width:0.992843"
       d="m 1002.8913,563.12636 13.5846,49.99219 -100.08301,-9.21094 z m 0,0"
       id="path186" />
    <path
       style="fill:#f5a38f;fill-opacity:1;fill-rule:nonzero;stroke:none;stroke-width:0.992843"
       d="m 945.80707,774.64589 c 0,0 -42.53296,52.71094 -42.65233,60.37109 -0.16945,11.03125 -50.44202,8.01172 -39.52962,3.28907 2.51442,-1.08985 10.43117,-5.14844 11.03177,-5.67969 3.25372,-2.83985 36.76877,-69.39063 36.76877,-69.39063 l 34.38141,11.41016"
       id="path188" />
    <path
       style="fill:#053359;fill-opacity:1;fill-rule:nonzero;stroke:none;stroke-width:0.992843"
       d="m 841.4769,843.3373 32.34064,-10.19922 c 0,0 11.15884,5.75781 29.3372,2.01953 0,0 4.74001,7.73047 5.52939,17.83984 0.1386,1.73828 0.98574,6.91797 -0.72008,7.17969 -6.18008,0.96875 -23.29187,0.55859 -42.59457,1.01172 0,0 -26.01428,0.30859 -42.2674,-5.14063 -16.26466,-5.4414 18.37482,-12.71093 18.37482,-12.71093"
       id="path190" />
    <path
       style="fill:#b5573f;fill-opacity:1;fill-rule:nonzero;stroke:none;stroke-width:0.992843"
       d="m 1151.7567,787.23573 c 0,0 -38.2665,-8.86718 -74.0304,-34.82812 -41.3893,-30.01953 -87.9461,-61.26172 -106.34015,-58.71875 -14.8168,2.04687 -100.95708,122.21875 -100.95708,122.21875 l 41.72436,18.4414 75.378,-78.52343 c 0,0 77.00687,80.53125 102.31257,86.03125 57.6155,12.51953 76.0288,-30.57813 61.9127,-54.6211"
       id="path192" />
    <path
       style="fill:#f5cc7d;fill-opacity:1;fill-rule:nonzero;stroke:none;stroke-width:0.992843"
       d="M 861.55744,590.59901 919.585,715.32558 c 0.26565,0.5625 0.77006,0.98047 1.37076,1.12109 L 959.71523,727.37636 910.18196,603.82558 864.041,587.78651 c -1.69813,-0.58984 -3.24603,1.17969 -2.48356,2.8125"
       id="path194" />
    <path
       style="fill:#053359;fill-opacity:1;fill-rule:nonzero;stroke:none;stroke-width:0.992843"
       d="m 1059.059,472.76698 c 0,0 10.7122,-14.82812 22.6797,0 0,0 7.1273,-5.35937 13.4768,1.73047 0,0 13.3267,-6.01172 19.3182,14.57031 0,0 6.9617,-2.28125 8.9833,6.19922 2.0099,8.46875 -1.5788,14.76172 -1.5788,14.76172 0,0 4.3857,2.52735 3.5579,10.66797 -0.7085,6.92188 -6.0608,8.65234 -6.0608,8.65234 0,0 -0.069,11.50782 -4.4858,15.54688 -4.4166,4.03125 -11.2089,3.24219 -11.2089,3.24219 0,0 -0.9857,6.36718 -6.7038,6.55078 -5.7142,0.17969 -13.396,-4.38281 -19.4067,-1.11328 -6.0145,3.27343 -22.7527,2.79297 -22.7527,2.79297 0,0 -19.4683,-5.96094 -16.3418,-25.76954 0,0 -10.793,-7.63281 -3.6464,-19.36328 0,0 -8.2709,-15.84765 2.7378,-27.25 11.0201,-11.39843 21.432,-11.21875 21.432,-11.21875"
       id="path196" />
    <path
       style="fill:#f5a38f;fill-opacity:1;fill-rule:nonzero;stroke:none;stroke-width:0.992843"
       d="m 999.98415,942.22794 c 0,0 2.35645,64.85936 3.81195,75.84756 1.4594,10.9297 -27.12699,43.8829 -23.48055,32.4219 0.85098,-2.6406 3.00728,-11.3594 3.01881,-12.1719 0.01,-4.3476 -10.6082,-78.34756 -10.6082,-78.34756 l 27.25799,-17.75"
       id="path198" />
    <path
       style="fill:#053359;fill-opacity:1;fill-rule:nonzero;stroke:none;stroke-width:0.992843"
       d="m 969.53405,1070.7552 13.62318,-31.4492 c 0,0 11.60172,-4.7695 20.75057,-21.1406 0,0 8.8485,1.4414 16.8922,7.4726 1.3901,1.0391 5.799,3.7774 4.8826,5.2579 -3.3423,5.371 -14.8747,18.2031 -27.19638,33.2812 0,0 -16.82682,20.1094 -31.54357,28.9883 -14.7206,8.8828 2.5914,-22.4102 2.5914,-22.4102"
       id="path200" />
    <path
       style="fill:#f37357;fill-opacity:1;fill-rule:nonzero;stroke:none;stroke-width:0.992843"
       d="m 972.05616,1009.8177 c 2.98806,-3.082 -30.26133,-169.01947 -14.13527,-185.03119 16.11827,-16.01953 123.83701,-39.59765 123.83701,-39.59765 l 14.1353,-50.53125 c 0,0 45.0397,13.39844 63.2681,40.96875 9.9729,15.08203 -0.2194,49.46094 -2.0215,53.26172 -15.379,32.5 -53.3876,34.1289 -81.0499,33.84765 -25.4289,-0.26953 -70.6072,-0.6289 -70.6072,-0.6289 l -0.1079,146.69137 c 0,0 -11.10871,2.7305 -19.86097,2.3906 -11.96753,-0.4726 -13.45767,-1.3711 -13.45767,-1.3711"
       id="path202" />
    <path
       style="fill:#ffffff;fill-opacity:1;fill-rule:nonzero;stroke:none;stroke-width:0.992843"
       d="m 1071.9121,585.60683 29.1677,-10.64063 c 0,0 0.878,0.0508 1.1437,0.0195 3.1343,-0.39843 37.5581,113.85157 48.7939,157.08203 11.2282,43.21875 -3.4886,35.01954 -3.4886,35.01954 0,0 -25.7292,16.26953 -55.6748,17.41015 -31.1316,1.19922 -24.9014,-36.87109 -24.9014,-36.87109 0,0 -16.3918,-79.46094 -14.4703,-106.50781 1.9214,-27.05079 19.4298,-55.51172 19.4298,-55.51172"
       id="path204" />
    <path
       style="fill:#f5a38f;fill-opacity:1;fill-rule:nonzero;stroke:none;stroke-width:0.992843"
       d="m 1072.3742,562.36855 -0.1155,14.57031 -0.024,2.57812 c 0,0 -1.9792,24.94141 5.0596,28.78907 7.0465,3.85156 23.7655,-33.32813 23.7655,-33.32813 l -7.5702,-42.3125 -21.1162,29.70313"
       id="path206" />
    <path
       style="fill:#f37357;fill-opacity:1;fill-rule:nonzero;stroke:none;stroke-width:0.992843"
       d="m 1095.9432,546.42714 c -3.5193,15.26172 -15.1017,25.85156 -23.6769,30.48047 l 0.1079,-14.53906 21.1162,-29.69141 2.4528,13.75"
       id="path208" />
    <path
       style="fill:#f5a38f;fill-opacity:1;fill-rule:nonzero;stroke:none;stroke-width:0.992843"
       d="m 1072.9671,489.70839 c -13.6732,-2.89063 -26.5379,7.73047 -26.8228,21.6875 -0.127,6.07031 0.019,13.66016 0.8971,21.87109 2.1102,19.73828 14.5513,37.60938 23.3728,36.46875 8.8139,-1.1289 31.5821,-17.00781 28.9714,-45.07812 -1.6172,-17.33203 -12.0675,-31.92188 -26.4185,-34.94922"
       id="path210" />
    <path
       style="fill:#f5a38f;fill-opacity:1;fill-rule:nonzero;stroke:none;stroke-width:0.992843"
       d="m 1093.1632,527.69667 c 0.5429,4.35156 3.8274,7.51172 7.3237,7.05078 3.5002,-0.44922 5.8952,-4.33203 5.3561,-8.67969 -0.5429,-4.33984 -3.8159,-7.5 -7.3276,-7.05078 -3.4963,0.44922 -5.8913,4.33985 -5.3522,8.67969"
       id="path212" />
    <path
       style="fill:#053359;fill-opacity:1;fill-rule:nonzero;stroke:none;stroke-width:0.992843"
       d="m 1033.5453,484.81776 c -8.1901,8.48829 -9.9844,20.01954 -4.0199,25.75 5.9722,5.73047 17.4467,3.5 25.6407,-4.99218 8.1901,-8.48828 9.9921,-20.01953 4.0199,-25.75 -5.9644,-5.72657 -17.4467,-3.5 -25.6407,4.99218"
       id="path214" />
    <path
       style="fill:#053359;fill-opacity:1;fill-rule:nonzero;stroke:none;stroke-width:0.992843"
       d="m 1058.1002,487.75526 c 0.4043,3.1836 4.5051,5.27344 9.1797,4.67188 4.6707,-0.60156 8.1323,-3.67188 7.7357,-6.85156 -0.4043,-3.17969 -4.5051,-5.26953 -9.1759,-4.66797 -4.6706,0.59765 -8.1323,3.66797 -7.7395,6.84765"
       id="path216" />
    <path
       style="fill:#053359;fill-opacity:1;fill-rule:nonzero;stroke:none;stroke-width:0.992843"
       d="m 1036.0097,515.4662 c 0.516,4.08203 4.1509,6.98047 8.1438,6.47266 3.9815,-0.51172 6.8001,-4.24219 6.288,-8.33203 -0.5121,-4.08985 -4.1586,-6.98828 -8.1401,-6.46875 -3.9814,0.50781 -6.8038,4.23828 -6.2917,8.32812"
       id="path218" />
    <path
       style="fill:#456eb5;fill-opacity:1;fill-rule:nonzero;stroke:none;stroke-width:0.992843"
       d="m 1101.0606,574.97792 c 0,0 28.5556,-4.69922 38.1472,-0.5625 6.1031,2.63281 13.8696,55.16016 13.8696,55.16016 0,0 0.3159,53.12109 3.8853,68.10156 12.1022,50.76953 28.9983,95.23828 27.1078,97.75 -12.4219,10.35937 -64.3694,19.96094 -68.3239,15.01953 -43.5881,-54.48828 -14.686,-235.46875 -14.686,-235.46875"
       id="path220" />
    <path
       style="fill:#f5a38f;fill-opacity:1;fill-rule:nonzero;stroke:none;stroke-width:0.992843"
       d="m 1148.7302,628.82558 c 0,0 -28.594,89.66015 -41.1044,99.0625 -12.5104,9.39843 -68.7744,-78.58203 -68.7744,-78.58203 0,0 -24.9014,-14.33985 -26.6765,-14.48829 -7.058,-0.58984 14.7282,-4.28125 14.7282,-4.28125 l 2.6993,-22.8789 c 0,0 1.0666,0.16797 7.574,7.59765 8.7908,10.04297 16.4302,25.63282 20.0189,28.25 l 37.6929,29.02344 19.1833,-62.14062 34.6587,18.4375"
       id="path222" />
    <path
       style="fill:#fadeb0;fill-opacity:1;fill-rule:nonzero;stroke:none;stroke-width:0.992843"
       d="m 910.19349,603.82558 11.82884,-1.16797 50.73469,128.07031 -13.04179,-3.35156 -49.52174,-123.55078"
       id="path224" />
    <path
       style="fill:#f5cc7d;fill-opacity:1;fill-rule:nonzero;stroke:none;stroke-width:0.992843"
       d="m 1023.0103,572.61855 30.527,150.78906 c 0.5045,2.48828 -1.3284,4.83984 -3.8351,4.91015 l -76.94518,2.41797 -50.73469,-128.07812 95.72427,-33.10156 c 2.3065,-0.78907 4.7708,0.64062 5.2637,3.0625"
       id="path226" />
    <path
       style="fill:#85b0f0;fill-opacity:1;fill-rule:nonzero;stroke:none;stroke-width:0.992843"
       d="m 1053.9994,638.04823 -9.7573,21.66797 c 0,0 47.9546,80.0625 62.7638,75.6211 14.8052,-4.42969 42.7293,-91.14844 47.1073,-115.05079 4.3743,-23.89062 -4.713,-43.6875 -16.8268,-46.76953 -12.1137,-3.07031 -21.5398,17.76172 -25.2363,26.62891 -3.7043,8.88281 -17.1619,72.38281 -17.1619,72.38281 l -40.8888,-34.48047"
       id="path228" />
    <path
       style="fill:#f5a38f;fill-opacity:1;fill-rule:nonzero;stroke:none;stroke-width:0.992843"
       d="m 883.5093,639.23573 c 0,0 -1.79433,-3.19922 -2.37582,-5.16015 -0.5737,-1.94922 11.22823,-8.75 15.89885,-5.64844 4.67072,3.10156 -7.80497,7.80859 -13.52303,10.80859"
       id="path230" />
    <path
       style="fill:#f5a38f;fill-opacity:1;fill-rule:nonzero;stroke:none;stroke-width:0.992843"
       d="m 884.00217,647.06776 c 0,0 -2.96874,-3.15234 -3.5386,-5.10937 -0.58148,-1.95313 15.1287,-9.97266 19.80326,-6.87109 4.67071,3.10156 -10.5466,8.98828 -16.26466,11.98046"
       id="path232" />
    <path
       style="fill:#f5a38f;fill-opacity:1;fill-rule:nonzero;stroke:none;stroke-width:0.992843"
       d="m 889.38134,652.53651 c 0,0 -2.9649,-3.16015 -3.5386,-5.10937 -0.58149,-1.96094 11.22813,-8.75 15.90269,-5.66016 4.67072,3.10157 -6.64603,7.76953 -12.36409,10.76953"
       id="path234" />
    <path
       style="fill:#f5a38f;fill-opacity:1;fill-rule:nonzero;stroke:none;stroke-width:0.992843"
       d="m 1032.1283,616.53651 h -2.4566 c -1.1628,0 -2.3141,-0.1289 -3.4578,-0.3789 -4.5243,-1 -16.9076,-3.49219 -17.8703,-0.99219 -1.1744,3.08203 17.8319,6.66016 17.8319,6.66016 0,0 -20.8584,-2.72657 -20.8584,0.85156 0,3.58984 21.201,5.46875 21.201,5.46875 0,0 -18.5095,-0.6875 -18.8484,1.35937 -0.3349,2.05079 22.7144,7.85157 22.7144,7.85157 0,0 -18.6713,-4.08985 -20.5234,-1.69922 -1.8521,2.39062 29.2756,13.91015 29.2756,13.91015 l -7.008,-33.03125"
       id="path236" />
    <path
       style="fill:#f5a38f;fill-opacity:1;fill-rule:nonzero;stroke:none;stroke-width:0.992843"
       d="m 889.38134,652.53651 c 0,0 10.20395,-5.84765 12.90704,-4.01953 2.68761,1.82032 -8.75611,10.58203 -8.75611,10.58203 l 1.37077,3.19922 c 0,0 -7.3122,-5.74218 -5.5217,-9.76172"
       id="path238" />
  </g>
</svg>
