<svg xmlns="http://www.w3.org/2000/svg" width="32" height="32" viewBox="0 0 32 32"><g transform="translate(586 -1153.362)"><path fill="#2b4255" d="m -581,141 c -0.55401,0 -1,0.44599 -1,1 l 0,6 0,7 0,1 1,0 22,0 1,0 0,-1 0,-7 0,-6 c 0,-0.55401 -0.44599,-1 -1,-1 l -22,0 z" color="#000" overflow="visible" transform="translate(0 1020.362)" style="isolation:auto;mix-blend-mode:normal"/><rect style="isolation:auto;mix-blend-mode:normal" width="21.923" height="12.846" x="-580.962" y="1162.516" fill="#4bbfeb" color="#000" overflow="visible"/><path fill="#576d7e" d="m -555.98307,1176.3284 c 0,1.1268 -0.9071,2.0339 -2.03385,2.0339 l -23.94922,0 c -1.12676,0 -2.03386,-0.9071 -2.03386,-2.0339 z" color="#000" overflow="visible" style="isolation:auto;mix-blend-mode:normal"/><path fill="#cad1d8" style="isolation:auto;mix-blend-mode:normal" d="m -567.33768,1176.3284 c 0,0.5157 -0.41513,0.9307 -0.93077,0.9307 l -3.44616,0 c -0.51565,0 -0.93077,-0.415 -0.93077,-0.9307" color="#000" overflow="visible"/><path fill="#f8b74e" fill-opacity=".976" style="isolation:auto;mix-blend-mode:normal" d="m -558.00001,1165.8623 c 1.4272,0 2.7454,0.764 3.459,2 l -3.4532,0 -1,2 1,2 3.4531,0 c -0.7136,1.2361 -2.0317,1.9982 -3.4589,2 -1.4768,0 -2.7525,-0.8094 -3.4453,-2 l -17.1094,0 c -0.6929,1.1906 -1.9685,2 -3.4453,2 -1.4272,0 -2.7454,-0.764 -3.459,-2 l 3.4531,0 1,-2 -1,-2 -3.4531,0 c 0.7136,-1.236 2.0317,-2 3.4589,-2 1.4769,0 2.7525,0.8094 3.4454,2 l 17.1094,0 c 0.6928,-1.1906 1.9684,-2 3.4453,-2 z" color="#000" overflow="visible"/></g></svg>