<?xml version="1.0" encoding="UTF-8" standalone="no"?>
<svg
   enable-background="new 0 0 24 24"
   viewBox="0 0 302.36223 302.36221"
   version="1.1"
   id="svg8"
   sodipodi:docname="django.svg"
   width="8cm"
   height="8cm"
   inkscape:version="1.1.2 (0a00cf5339, 2022-02-04, custom)"
   xmlns:inkscape="http://www.inkscape.org/namespaces/inkscape"
   xmlns:sodipodi="http://sodipodi.sourceforge.net/DTD/sodipodi-0.dtd"
   xmlns="http://www.w3.org/2000/svg"
   xmlns:svg="http://www.w3.org/2000/svg">
  <defs
     id="defs12" />
  <sodipodi:namedview
     id="namedview10"
     pagecolor="#ffffff"
     bordercolor="#666666"
     borderopacity="1.0"
     inkscape:pageshadow="2"
     inkscape:pageopacity="0.0"
     inkscape:pagecheckerboard="0"
     showgrid="false"
     fit-margin-top="0"
     fit-margin-left="0"
     fit-margin-right="0"
     fit-margin-bottom="0"
     units="cm"
     width="0.48948cm"
     inkscape:zoom="0.69140625"
     inkscape:cx="130.89266"
     inkscape:cy="125.83051"
     inkscape:window-width="1350"
     inkscape:window-height="698"
     inkscape:window-x="5"
     inkscape:window-y="36"
     inkscape:window-maximized="1"
     inkscape:current-layer="svg8"
     inkscape:document-units="cm" />
  <g
     id="g832"
     transform="matrix(12.62571,0,0,12.62571,-0.32742215,-0.32741764)">
    <path
       fill="#0d2e1e"
       d="M 21.25,6.06 V 6.059 h -3.897 v 7.747 c 0,3.414 -0.177,4.714 -0.734,5.835 -0.531,1.096 -1.367,1.81 -3.088,2.625 L 17.15,24 c 1.721,-0.866 2.556,-1.656 3.189,-2.905 0.683,-1.299 0.911,-2.803 0.911,-5.937 z"
       id="path2" />
    <path
       fill="#0d2e1e"
       d="M 15.049,18.166 V 0 H 11.152 V 5.984 C 10.57,5.831 10.089,5.78 9.457,5.78 c -4.075,0 -6.707,2.599 -6.707,6.6 0,4.154 2.48,6.32 7.238,6.32 1.594,0.001 3.062,-0.152 5.061,-0.534 z M 6.723,12.304 C 6.723,10.163 7.861,8.94 9.836,8.94 H 9.832 C 9.86,8.938 9.887,8.938 9.914,8.938 c 0.443,0 0.868,0.075 1.237,0.205 v 6.294 C 10.595,15.514 10.24,15.539 9.81,15.539 7.812,15.54 6.723,14.394 6.723,12.304 Z"
       id="path4" />
    <rect
       width="3.8970001"
       height="4.026"
       x="17.353001"
       y="0.021"
       fill="#0d2e1e"
       id="rect6" />
  </g>
</svg>
