<?xml version="1.0" encoding="UTF-8" standalone="no"?>
<svg
   viewBox="0 0 36 30"
   version="1.1"
   id="svg4"
   sodipodi:docname="graduation.svg"
   width="36"
   height="30"
   inkscape:version="1.1.2 (0a00cf5339, 2022-02-04, custom)"
   xmlns:inkscape="http://www.inkscape.org/namespaces/inkscape"
   xmlns:sodipodi="http://sodipodi.sourceforge.net/DTD/sodipodi-0.dtd"
   xmlns="http://www.w3.org/2000/svg"
   xmlns:svg="http://www.w3.org/2000/svg">
  <defs
     id="defs8" />
  <sodipodi:namedview
     id="namedview6"
     pagecolor="#ffffff"
     bordercolor="#666666"
     borderopacity="1.0"
     inkscape:pageshadow="2"
     inkscape:pageopacity="0.0"
     inkscape:pagecheckerboard="0"
     showgrid="false"
     inkscape:zoom="2.9333883"
     inkscape:cx="21.647322"
     inkscape:cy="43.635546"
     inkscape:window-width="1350"
     inkscape:window-height="698"
     inkscape:window-x="5"
     inkscape:window-y="36"
     inkscape:window-maximized="1"
     inkscape:current-layer="svg4" />
  <!--! Font Awesome Pro 6.0.0 by @fontawesome - https://fontawesome.com License - https://fontawesome.com/license (Commercial License) Copyright 2022 Fonticons, Inc. -->
  <path
     d="M 30.731067,12.955462 20.999874,5.9104234 C 20.527208,5.5684715 19.961654,5.415716 19.396903,5.4774628 L 7.7971959,6.7610474 C 7.401241,6.8068536 7.071747,7.1193689 6.9742222,7.5469126 6.8766981,7.9744565 7.0331788,8.4204178 7.3640551,8.6599188 l 2.065801,1.4967282 c -0.5973572,0.52821 -1.085738,1.197582 -1.4333891,1.967372 -0.4788076,0.08234 -0.8898325,0.468852 -1.0136136,1.011506 -0.093333,0.409168 0.00849,0.809247 0.222651,1.123277 L 4.870218,20.130825 c -0.1529148,0.383777 0.047725,0.826393 0.4213618,0.927309 l 2.1995059,0.594087 c 0.3735231,0.100882 0.7409974,-0.187362 0.7708562,-0.604858 l 0.4591705,-6.37876 c 0.3244107,-0.168559 0.5942759,-0.505913 0.6796103,-0.880014 0.096493,-0.423022 -0.017015,-0.835118 -0.2471485,-1.153026 0.3271792,-0.686724 0.803739,-1.258911 1.3832298,-1.678911 l 6.560902,4.749842 c 0.472666,0.341952 1.038219,0.494708 1.602971,0.432961 l 11.629175,-1.275626 c 0.397483,-0.04583 0.725542,-0.358732 0.823065,-0.786276 0.09753,-0.427544 -0.05799,-0.871061 -0.42185,-1.122091 z m -11.940428,4.521505 c -0.389821,0.05619 -0.815652,0.02408 -1.227446,-0.08713 -0.41255,-0.111438 -0.801924,-0.298081 -1.156844,-0.5549 l -4.998437,-3.617096 -1.8982197,5.719487 c -0.3872855,1.697844 2.5145217,3.939288 6.5531197,5.030109 3.970596,1.072454 7.566815,0.586119 7.953819,-1.110491 l 0.781648,-6.025436 z"
     id="path2"
     style="opacity:0.3;fill:#003739;fill-opacity:1;stroke:#002c2f;stroke-width:0.0406054;stroke-opacity:0.995674" />
</svg>
